<?xml version="1.0" encoding="utf-8" standalone="no"?>
<!DOCTYPE svg PUBLIC "-//W3C//DTD SVG 1.1//EN"
  "http://www.w3.org/Graphics/SVG/1.1/DTD/svg11.dtd">
<svg height="288pt" version="1.1" viewBox="0 0 432 288" width="432pt" xmlns="http://www.w3.org/2000/svg" xmlns:xlink="http://www.w3.org/1999/xlink">
 <metadata>
  <rdf:RDF xmlns:cc="http://creativecommons.org/ns#" xmlns:dc="http://purl.org/dc/elements/1.1/" xmlns:rdf="http://www.w3.org/1999/02/22-rdf-syntax-ns#">
   <cc:Work>
    <dc:type rdf:resource="http://purl.org/dc/dcmitype/StillImage"/>
    <dc:date>2021-06-25T04:30:59.333132</dc:date>
    <dc:format>image/svg+xml</dc:format>
    <dc:creator>
     <cc:Agent>
      <dc:title>Matplotlib v3.4.2, https://matplotlib.org/</dc:title>
     </cc:Agent>
    </dc:creator>
   </cc:Work>
  </rdf:RDF>
 </metadata>
 <defs>
  <style type="text/css">*{stroke-linecap:butt;stroke-linejoin:round;}</style>
 </defs>
 <g id="figure_1">
  <g id="patch_1">
   <path d="M 0 288 
L 432 288 
L 432 0 
L 0 0 
z
" style="fill:none;"/>
  </g>
  <g id="axes_1">
   <g id="patch_2">
    <path d="M 54 252 
L 388.8 252 
L 388.8 34.56 
L 54 34.56 
z
" style="fill:#ffffff;"/>
   </g>
   <g id="matplotlib.axis_1">
    <g id="xtick_1">
     <g id="line2d_1">
      <defs>
       <path d="M 0 0 
L 0 3.5 
" id="mb3242ffe6d" style="stroke:#000000;stroke-width:0.8;"/>
      </defs>
      <g>
       <use style="stroke:#000000;stroke-width:0.8;" x="69.218182" xlink:href="#mb3242ffe6d" y="252"/>
      </g>
     </g>
     <g id="text_1">
      <!-- 0 -->
      <g transform="translate(66.036932 266.598437)scale(0.1 -0.1)">
       <defs>
        <path d="M 2034 4250 
Q 1547 4250 1301 3770 
Q 1056 3291 1056 2328 
Q 1056 1369 1301 889 
Q 1547 409 2034 409 
Q 2525 409 2770 889 
Q 3016 1369 3016 2328 
Q 3016 3291 2770 3770 
Q 2525 4250 2034 4250 
z
M 2034 4750 
Q 2819 4750 3233 4129 
Q 3647 3509 3647 2328 
Q 3647 1150 3233 529 
Q 2819 -91 2034 -91 
Q 1250 -91 836 529 
Q 422 1150 422 2328 
Q 422 3509 836 4129 
Q 1250 4750 2034 4750 
z
" id="DejaVuSans-30" transform="scale(0.015625)"/>
       </defs>
       <use xlink:href="#DejaVuSans-30"/>
      </g>
     </g>
    </g>
    <g id="xtick_2">
     <g id="line2d_2">
      <g>
       <use style="stroke:#000000;stroke-width:0.8;" x="130.212899" xlink:href="#mb3242ffe6d" y="252"/>
      </g>
     </g>
     <g id="text_2">
      <!-- 100 -->
      <g transform="translate(120.669149 266.598437)scale(0.1 -0.1)">
       <defs>
        <path d="M 794 531 
L 1825 531 
L 1825 4091 
L 703 3866 
L 703 4441 
L 1819 4666 
L 2450 4666 
L 2450 531 
L 3481 531 
L 3481 0 
L 794 0 
L 794 531 
z
" id="DejaVuSans-31" transform="scale(0.015625)"/>
       </defs>
       <use xlink:href="#DejaVuSans-31"/>
       <use x="63.623047" xlink:href="#DejaVuSans-30"/>
       <use x="127.246094" xlink:href="#DejaVuSans-30"/>
      </g>
     </g>
    </g>
    <g id="xtick_3">
     <g id="line2d_3">
      <g>
       <use style="stroke:#000000;stroke-width:0.8;" x="191.207615" xlink:href="#mb3242ffe6d" y="252"/>
      </g>
     </g>
     <g id="text_3">
      <!-- 200 -->
      <g transform="translate(181.663865 266.598437)scale(0.1 -0.1)">
       <defs>
        <path d="M 1228 531 
L 3431 531 
L 3431 0 
L 469 0 
L 469 531 
Q 828 903 1448 1529 
Q 2069 2156 2228 2338 
Q 2531 2678 2651 2914 
Q 2772 3150 2772 3378 
Q 2772 3750 2511 3984 
Q 2250 4219 1831 4219 
Q 1534 4219 1204 4116 
Q 875 4013 500 3803 
L 500 4441 
Q 881 4594 1212 4672 
Q 1544 4750 1819 4750 
Q 2544 4750 2975 4387 
Q 3406 4025 3406 3419 
Q 3406 3131 3298 2873 
Q 3191 2616 2906 2266 
Q 2828 2175 2409 1742 
Q 1991 1309 1228 531 
z
" id="DejaVuSans-32" transform="scale(0.015625)"/>
       </defs>
       <use xlink:href="#DejaVuSans-32"/>
       <use x="63.623047" xlink:href="#DejaVuSans-30"/>
       <use x="127.246094" xlink:href="#DejaVuSans-30"/>
      </g>
     </g>
    </g>
    <g id="xtick_4">
     <g id="line2d_4">
      <g>
       <use style="stroke:#000000;stroke-width:0.8;" x="252.202332" xlink:href="#mb3242ffe6d" y="252"/>
      </g>
     </g>
     <g id="text_4">
      <!-- 300 -->
      <g transform="translate(242.658582 266.598437)scale(0.1 -0.1)">
       <defs>
        <path d="M 2597 2516 
Q 3050 2419 3304 2112 
Q 3559 1806 3559 1356 
Q 3559 666 3084 287 
Q 2609 -91 1734 -91 
Q 1441 -91 1130 -33 
Q 819 25 488 141 
L 488 750 
Q 750 597 1062 519 
Q 1375 441 1716 441 
Q 2309 441 2620 675 
Q 2931 909 2931 1356 
Q 2931 1769 2642 2001 
Q 2353 2234 1838 2234 
L 1294 2234 
L 1294 2753 
L 1863 2753 
Q 2328 2753 2575 2939 
Q 2822 3125 2822 3475 
Q 2822 3834 2567 4026 
Q 2313 4219 1838 4219 
Q 1578 4219 1281 4162 
Q 984 4106 628 3988 
L 628 4550 
Q 988 4650 1302 4700 
Q 1616 4750 1894 4750 
Q 2613 4750 3031 4423 
Q 3450 4097 3450 3541 
Q 3450 3153 3228 2886 
Q 3006 2619 2597 2516 
z
" id="DejaVuSans-33" transform="scale(0.015625)"/>
       </defs>
       <use xlink:href="#DejaVuSans-33"/>
       <use x="63.623047" xlink:href="#DejaVuSans-30"/>
       <use x="127.246094" xlink:href="#DejaVuSans-30"/>
      </g>
     </g>
    </g>
    <g id="xtick_5">
     <g id="line2d_5">
      <g>
       <use style="stroke:#000000;stroke-width:0.8;" x="313.197049" xlink:href="#mb3242ffe6d" y="252"/>
      </g>
     </g>
     <g id="text_5">
      <!-- 400 -->
      <g transform="translate(303.653299 266.598437)scale(0.1 -0.1)">
       <defs>
        <path d="M 2419 4116 
L 825 1625 
L 2419 1625 
L 2419 4116 
z
M 2253 4666 
L 3047 4666 
L 3047 1625 
L 3713 1625 
L 3713 1100 
L 3047 1100 
L 3047 0 
L 2419 0 
L 2419 1100 
L 313 1100 
L 313 1709 
L 2253 4666 
z
" id="DejaVuSans-34" transform="scale(0.015625)"/>
       </defs>
       <use xlink:href="#DejaVuSans-34"/>
       <use x="63.623047" xlink:href="#DejaVuSans-30"/>
       <use x="127.246094" xlink:href="#DejaVuSans-30"/>
      </g>
     </g>
    </g>
    <g id="xtick_6">
     <g id="line2d_6">
      <g>
       <use style="stroke:#000000;stroke-width:0.8;" x="374.191765" xlink:href="#mb3242ffe6d" y="252"/>
      </g>
     </g>
     <g id="text_6">
      <!-- 500 -->
      <g transform="translate(364.648015 266.598437)scale(0.1 -0.1)">
       <defs>
        <path d="M 691 4666 
L 3169 4666 
L 3169 4134 
L 1269 4134 
L 1269 2991 
Q 1406 3038 1543 3061 
Q 1681 3084 1819 3084 
Q 2600 3084 3056 2656 
Q 3513 2228 3513 1497 
Q 3513 744 3044 326 
Q 2575 -91 1722 -91 
Q 1428 -91 1123 -41 
Q 819 9 494 109 
L 494 744 
Q 775 591 1075 516 
Q 1375 441 1709 441 
Q 2250 441 2565 725 
Q 2881 1009 2881 1497 
Q 2881 1984 2565 2268 
Q 2250 2553 1709 2553 
Q 1456 2553 1204 2497 
Q 953 2441 691 2322 
L 691 4666 
z
" id="DejaVuSans-35" transform="scale(0.015625)"/>
       </defs>
       <use xlink:href="#DejaVuSans-35"/>
       <use x="63.623047" xlink:href="#DejaVuSans-30"/>
       <use x="127.246094" xlink:href="#DejaVuSans-30"/>
      </g>
     </g>
    </g>
   </g>
   <g id="matplotlib.axis_2">
    <g id="ytick_1">
     <g id="line2d_7">
      <defs>
       <path d="M 0 0 
L -3.5 0 
" id="m7cdf7ef9a2" style="stroke:#000000;stroke-width:0.8;"/>
      </defs>
      <g>
       <use style="stroke:#000000;stroke-width:0.8;" x="54" xlink:href="#m7cdf7ef9a2" y="250.778342"/>
      </g>
     </g>
     <g id="text_7">
      <!-- −50 -->
      <g transform="translate(25.895312 254.577561)scale(0.1 -0.1)">
       <defs>
        <path d="M 678 2272 
L 4684 2272 
L 4684 1741 
L 678 1741 
L 678 2272 
z
" id="DejaVuSans-2212" transform="scale(0.015625)"/>
       </defs>
       <use xlink:href="#DejaVuSans-2212"/>
       <use x="83.789062" xlink:href="#DejaVuSans-35"/>
       <use x="147.412109" xlink:href="#DejaVuSans-30"/>
      </g>
     </g>
    </g>
    <g id="ytick_2">
     <g id="line2d_8">
      <g>
       <use style="stroke:#000000;stroke-width:0.8;" x="54" xlink:href="#m7cdf7ef9a2" y="224.367464"/>
      </g>
     </g>
     <g id="text_8">
      <!-- −40 -->
      <g transform="translate(25.895312 228.166683)scale(0.1 -0.1)">
       <use xlink:href="#DejaVuSans-2212"/>
       <use x="83.789062" xlink:href="#DejaVuSans-34"/>
       <use x="147.412109" xlink:href="#DejaVuSans-30"/>
      </g>
     </g>
    </g>
    <g id="ytick_3">
     <g id="line2d_9">
      <g>
       <use style="stroke:#000000;stroke-width:0.8;" x="54" xlink:href="#m7cdf7ef9a2" y="197.956587"/>
      </g>
     </g>
     <g id="text_9">
      <!-- −30 -->
      <g transform="translate(25.895312 201.755806)scale(0.1 -0.1)">
       <use xlink:href="#DejaVuSans-2212"/>
       <use x="83.789062" xlink:href="#DejaVuSans-33"/>
       <use x="147.412109" xlink:href="#DejaVuSans-30"/>
      </g>
     </g>
    </g>
    <g id="ytick_4">
     <g id="line2d_10">
      <g>
       <use style="stroke:#000000;stroke-width:0.8;" x="54" xlink:href="#m7cdf7ef9a2" y="171.54571"/>
      </g>
     </g>
     <g id="text_10">
      <!-- −20 -->
      <g transform="translate(25.895312 175.344928)scale(0.1 -0.1)">
       <use xlink:href="#DejaVuSans-2212"/>
       <use x="83.789062" xlink:href="#DejaVuSans-32"/>
       <use x="147.412109" xlink:href="#DejaVuSans-30"/>
      </g>
     </g>
    </g>
    <g id="ytick_5">
     <g id="line2d_11">
      <g>
       <use style="stroke:#000000;stroke-width:0.8;" x="54" xlink:href="#m7cdf7ef9a2" y="145.134832"/>
      </g>
     </g>
     <g id="text_11">
      <!-- −10 -->
      <g transform="translate(25.895312 148.934051)scale(0.1 -0.1)">
       <use xlink:href="#DejaVuSans-2212"/>
       <use x="83.789062" xlink:href="#DejaVuSans-31"/>
       <use x="147.412109" xlink:href="#DejaVuSans-30"/>
      </g>
     </g>
    </g>
    <g id="ytick_6">
     <g id="line2d_12">
      <g>
       <use style="stroke:#000000;stroke-width:0.8;" x="54" xlink:href="#m7cdf7ef9a2" y="118.723955"/>
      </g>
     </g>
     <g id="text_12">
      <!-- 0 -->
      <g transform="translate(40.6375 122.523174)scale(0.1 -0.1)">
       <use xlink:href="#DejaVuSans-30"/>
      </g>
     </g>
    </g>
    <g id="ytick_7">
     <g id="line2d_13">
      <g>
       <use style="stroke:#000000;stroke-width:0.8;" x="54" xlink:href="#m7cdf7ef9a2" y="92.313078"/>
      </g>
     </g>
     <g id="text_13">
      <!-- 10 -->
      <g transform="translate(34.275 96.112296)scale(0.1 -0.1)">
       <use xlink:href="#DejaVuSans-31"/>
       <use x="63.623047" xlink:href="#DejaVuSans-30"/>
      </g>
     </g>
    </g>
    <g id="ytick_8">
     <g id="line2d_14">
      <g>
       <use style="stroke:#000000;stroke-width:0.8;" x="54" xlink:href="#m7cdf7ef9a2" y="65.9022"/>
      </g>
     </g>
     <g id="text_14">
      <!-- 20 -->
      <g transform="translate(34.275 69.701419)scale(0.1 -0.1)">
       <use xlink:href="#DejaVuSans-32"/>
       <use x="63.623047" xlink:href="#DejaVuSans-30"/>
      </g>
     </g>
    </g>
    <g id="ytick_9">
     <g id="line2d_15">
      <g>
       <use style="stroke:#000000;stroke-width:0.8;" x="54" xlink:href="#m7cdf7ef9a2" y="39.491323"/>
      </g>
     </g>
     <g id="text_15">
      <!-- 30 -->
      <g transform="translate(34.275 43.290542)scale(0.1 -0.1)">
       <use xlink:href="#DejaVuSans-33"/>
       <use x="63.623047" xlink:href="#DejaVuSans-30"/>
      </g>
     </g>
    </g>
   </g>
   <g id="line2d_16">
    <path clip-path="url(#p58ee543d57)" d="M 69.218182 119.846749 
L 69.828129 120.283369 
L 70.438076 120.872021 
L 71.048023 117.899125 
L 71.65797 120.379075 
L 72.877865 112.11802 
L 73.487812 116.685528 
L 74.097759 113.653597 
L 74.707706 116.154176 
L 75.317653 109.54406 
L 75.927601 111.220389 
L 76.537548 109.111239 
L 77.147495 108.44984 
L 77.757442 112.60163 
L 78.367389 115.924019 
L 78.977336 115.578853 
L 80.197231 112.89975 
L 81.417125 119.286941 
L 82.027072 118.997374 
L 82.637019 116.084839 
L 83.856914 115.617308 
L 84.466861 112.691414 
L 85.076808 112.46498 
L 85.686755 110.185708 
L 86.296702 106.628282 
L 86.90665 110.862237 
L 87.516597 107.138455 
L 88.126544 107.165852 
L 88.736491 105.45544 
L 89.346438 106.654195 
L 89.956385 107.349817 
L 90.566333 103.504788 
L 91.17628 103.152507 
L 91.786227 97.408371 
L 92.396174 99.734041 
L 93.006121 98.66856 
L 93.616069 100.549208 
L 94.226016 97.535016 
L 94.835963 93.330458 
L 95.44591 91.32491 
L 96.055857 94.816383 
L 97.275752 88.218555 
L 97.885699 92.411129 
L 98.495646 92.320313 
L 99.105593 89.404239 
L 99.71554 83.407635 
L 100.325487 84.553224 
L 100.935435 84.851243 
L 102.765276 76.887423 
L 103.375223 75.011347 
L 103.98517 71.97627 
L 104.595118 73.492751 
L 105.815012 71.443681 
L 106.424959 72.126783 
L 107.034906 71.969076 
L 107.644853 73.388824 
L 108.254801 67.566918 
L 108.864748 67.060139 
L 109.474695 65.836133 
L 110.084642 67.465775 
L 110.694589 68.425293 
L 111.304536 68.617887 
L 112.524431 71.224479 
L 113.134378 73.95 
L 113.744325 69.972044 
L 114.354272 70.407499 
L 115.574167 76.800939 
L 116.184114 75.952469 
L 116.794061 81.99509 
L 117.404008 78.138942 
L 118.013955 76.034622 
L 118.623902 75.047436 
L 119.23385 73.806291 
L 119.843797 73.620644 
L 121.063691 84.335754 
L 121.673638 79.0193 
L 122.893533 77.152996 
L 123.50348 75.0587 
L 124.113427 77.268081 
L 124.723374 76.64735 
L 125.333321 74.433029 
L 125.943268 73.37577 
L 126.553216 71.910637 
L 127.163163 72.447547 
L 127.77311 75.884835 
L 128.383057 80.98663 
L 128.993004 85.064391 
L 129.602951 90.221418 
L 130.212899 92.45664 
L 130.822846 91.768008 
L 131.432793 89.202414 
L 132.04274 91.83521 
L 132.652687 91.663332 
L 133.262634 93.129293 
L 133.872582 91.983832 
L 134.482529 92.993902 
L 135.092476 93.067426 
L 135.702423 97.196369 
L 136.31237 96.906516 
L 136.922317 100.430596 
L 138.142212 98.054029 
L 138.752159 93.486837 
L 139.362106 92.696617 
L 139.972053 92.229615 
L 140.582 94.612873 
L 141.191948 88.623488 
L 141.801895 87.754855 
L 142.411842 91.142123 
L 143.021789 91.636412 
L 143.631736 90.751841 
L 144.241683 89.595379 
L 144.851631 90.161568 
L 145.461578 89.299833 
L 146.071525 89.956031 
L 146.681472 91.441311 
L 147.291419 88.094838 
L 147.901366 89.860134 
L 148.511314 89.188498 
L 149.121261 87.997088 
L 149.731208 87.916983 
L 150.341155 86.993896 
L 150.951102 91.636338 
L 151.561049 94.060571 
L 152.170997 99.059697 
L 152.780944 97.062079 
L 153.390891 98.658874 
L 154.000838 100.91045 
L 155.83068 97.097439 
L 156.440627 99.90987 
L 157.050574 99.789221 
L 157.660521 98.767614 
L 158.270468 102.194111 
L 158.880415 98.91773 
L 159.490363 103.687748 
L 160.10031 100.375192 
L 160.710257 106.334748 
L 161.320204 110.435525 
L 162.540098 114.319626 
L 163.150046 114.673158 
L 163.759993 115.608544 
L 164.36994 110.516692 
L 164.979887 111.733098 
L 165.589834 108.778924 
L 166.199781 108.266431 
L 166.809729 106.492978 
L 167.419676 105.805426 
L 168.63957 109.632495 
L 169.249517 108.712454 
L 169.859464 110.651708 
L 170.469412 109.303757 
L 171.079359 102.98168 
L 172.299253 106.489502 
L 172.9092 109.895189 
L 173.519147 112.400843 
L 174.129095 112.8139 
L 174.739042 115.354241 
L 175.348989 112.920199 
L 175.958936 109.074702 
L 176.568883 111.115513 
L 177.17883 106.939344 
L 177.788778 109.689169 
L 178.398725 111.350033 
L 179.008672 111.088107 
L 179.618619 112.327262 
L 180.228566 109.424648 
L 180.838513 105.225435 
L 182.058408 106.862314 
L 182.668355 108.172099 
L 183.278302 114.410678 
L 183.888249 112.22431 
L 184.498196 112.844859 
L 185.108144 116.154066 
L 185.718091 114.541828 
L 186.328038 111.8668 
L 186.937985 112.754702 
L 187.547932 115.440299 
L 188.157879 115.842079 
L 188.767827 113.374464 
L 189.377774 114.593797 
L 189.987721 119.026103 
L 190.597668 119.439262 
L 191.207615 118.000301 
L 191.817562 116.887184 
L 192.42751 113.604376 
L 193.037457 111.391957 
L 193.647404 111.002076 
L 194.257351 112.391851 
L 194.867298 112.885872 
L 195.477245 112.234026 
L 196.087193 114.1173 
L 196.69714 116.378282 
L 197.307087 120.765884 
L 197.917034 120.147076 
L 198.526981 121.192775 
L 199.136928 123.078211 
L 199.746876 123.417795 
L 200.356823 122.862051 
L 200.96677 124.216424 
L 201.576717 130.703701 
L 202.186664 132.370368 
L 202.796611 133.580903 
L 203.406559 132.029924 
L 204.016506 138.445383 
L 204.626453 143.43624 
L 205.2364 139.755133 
L 205.846347 143.521278 
L 207.066242 145.721778 
L 207.676189 139.861154 
L 208.286136 143.143836 
L 208.896083 144.070207 
L 209.50603 143.228353 
L 210.115977 144.65039 
L 210.725925 145.504848 
L 211.335872 146.139233 
L 211.945819 144.021813 
L 212.555766 145.172465 
L 213.165713 146.072383 
L 213.77566 148.823649 
L 214.385608 149.004472 
L 214.995555 149.745816 
L 215.605502 146.56118 
L 216.825396 143.100288 
L 217.435343 143.018174 
L 218.045291 147.127981 
L 218.655238 145.564743 
L 219.265185 144.593395 
L 219.875132 146.077611 
L 220.485079 145.666167 
L 221.095026 143.625251 
L 221.704974 144.522545 
L 222.314921 143.354398 
L 222.924868 139.408569 
L 223.534815 141.04668 
L 224.144762 143.454339 
L 224.754709 143.45937 
L 225.364657 145.41046 
L 225.974604 141.582435 
L 226.584551 141.584257 
L 227.194498 139.470466 
L 227.804445 138.957617 
L 228.414392 141.481961 
L 229.02434 140.439213 
L 229.634287 143.072644 
L 230.244234 148.735321 
L 230.854181 143.689949 
L 231.464128 141.699187 
L 232.074075 144.55086 
L 232.684023 141.710522 
L 233.29397 145.305577 
L 233.903917 145.365286 
L 234.513864 148.448938 
L 235.123811 147.498424 
L 235.733758 147.25263 
L 236.343706 151.026096 
L 236.953653 153.924671 
L 237.5636 151.068168 
L 238.173547 156.217239 
L 238.783494 157.611449 
L 239.393441 154.343014 
L 240.003389 155.366269 
L 240.613336 155.405562 
L 241.223283 153.52918 
L 241.83323 155.458491 
L 242.443177 153.156915 
L 243.053124 156.159706 
L 243.663072 156.172571 
L 244.273019 155.888834 
L 244.882966 155.279924 
L 246.10286 151.043854 
L 246.712807 150.598437 
L 247.322755 148.578378 
L 247.932702 148.711708 
L 248.542649 150.222129 
L 249.152596 156.057884 
L 249.762543 155.824059 
L 250.37249 155.933738 
L 250.982438 152.677815 
L 252.202332 153.435539 
L 252.812279 152.551938 
L 253.422226 154.891398 
L 254.032173 154.904127 
L 254.642121 160.40345 
L 255.252068 170.09177 
L 255.862015 170.486866 
L 256.471962 171.073286 
L 257.081909 174.158783 
L 257.691856 174.675494 
L 258.301804 176.490201 
L 258.911751 174.482066 
L 259.521698 173.390598 
L 260.131645 172.789664 
L 260.741592 169.318833 
L 261.351539 169.965779 
L 261.961487 169.58547 
L 262.571434 172.967325 
L 263.181381 173.418242 
L 263.791328 172.766981 
L 264.401275 171.100299 
L 265.011222 171.263507 
L 265.62117 170.054462 
L 266.231117 172.056334 
L 266.841064 176.350902 
L 268.060958 177.681909 
L 269.280853 178.213339 
L 269.8908 175.817084 
L 270.500747 176.83724 
L 271.110694 173.597664 
L 271.720641 177.310712 
L 272.330588 173.983528 
L 272.940536 173.923807 
L 273.550483 175.785157 
L 274.16043 175.272833 
L 274.770377 170.315544 
L 275.380324 171.827052 
L 275.990271 172.853234 
L 276.600219 175.849684 
L 277.210166 176.121499 
L 277.820113 175.135626 
L 278.43006 172.174671 
L 279.040007 171.075254 
L 279.649954 168.439436 
L 280.259902 166.34018 
L 280.869849 168.714016 
L 281.479796 164.811143 
L 282.089743 163.941359 
L 282.69969 160.338928 
L 283.309637 155.190767 
L 283.919585 157.679469 
L 284.529532 149.740076 
L 285.139479 151.563739 
L 285.749426 152.2091 
L 286.96932 148.602196 
L 287.579268 148.769981 
L 288.189215 147.978388 
L 288.799162 153.463896 
L 289.409109 156.120759 
L 290.019056 153.070118 
L 290.629003 150.915445 
L 291.238951 146.046885 
L 291.848898 143.931287 
L 292.458845 145.437554 
L 293.068792 140.049471 
L 293.678739 141.279618 
L 294.288686 140.779656 
L 294.898634 138.234158 
L 295.508581 138.71282 
L 296.118528 137.575069 
L 297.338422 134.661558 
L 297.948369 138.920371 
L 298.558317 136.804518 
L 299.168264 139.435288 
L 299.778211 139.448618 
L 300.388158 138.005528 
L 300.998105 132.393559 
L 301.608052 132.413724 
L 302.827947 135.692049 
L 303.437894 134.127095 
L 304.047841 131.82006 
L 304.657788 132.369994 
L 305.267735 134.692918 
L 305.877683 129.099418 
L 306.48763 132.03948 
L 307.097577 130.025674 
L 307.707524 131.493282 
L 308.317471 131.855527 
L 308.927418 131.180394 
L 309.537366 129.102792 
L 310.147313 127.66948 
L 311.367207 128.308376 
L 311.977154 127.991744 
L 312.587101 129.743391 
L 313.197049 128.777213 
L 313.806996 128.760181 
L 314.416943 127.088366 
L 315.02689 129.895617 
L 315.636837 129.599778 
L 316.246784 128.063456 
L 316.856732 128.228653 
L 317.466679 127.181795 
L 318.076626 126.485269 
L 319.29652 131.559951 
L 319.906467 136.362339 
L 320.516415 136.869137 
L 321.126362 143.692586 
L 321.736309 141.391477 
L 322.346256 144.980951 
L 322.956203 142.783163 
L 323.56615 141.020826 
L 324.176098 140.048505 
L 324.786045 142.263367 
L 325.395992 137.205081 
L 326.005939 139.757761 
L 326.615886 134.621215 
L 327.225833 132.68349 
L 328.445728 127.223829 
L 329.055675 127.191827 
L 329.665622 125.179899 
L 330.275569 124.80272 
L 330.885516 124.583211 
L 331.495464 120.631738 
L 332.105411 115.39052 
L 332.715358 114.431498 
L 333.325305 110.745757 
L 333.935252 113.291439 
L 334.545199 114.853694 
L 335.155147 115.357019 
L 335.765094 117.459308 
L 336.375041 116.87155 
L 336.984988 118.730704 
L 337.594935 119.448839 
L 338.204882 121.310047 
L 339.424777 124.273827 
L 340.034724 125.430278 
L 340.644671 121.85606 
L 341.254618 122.512675 
L 341.864565 122.052934 
L 342.474513 128.09112 
L 343.694407 135.731273 
L 344.304354 141.646187 
L 344.914301 143.118264 
L 345.524248 140.642487 
L 346.134196 139.647144 
L 347.35409 136.100324 
L 347.964037 134.876933 
L 348.573984 129.816403 
L 349.183931 130.040421 
L 349.793879 127.997712 
L 350.403826 125.165957 
L 351.013773 126.51179 
L 351.62372 120.511708 
L 352.233667 117.541656 
L 352.843615 115.136514 
L 354.063509 122.989598 
L 354.673456 127.694066 
L 355.283403 127.504247 
L 355.89335 123.941417 
L 356.503298 129.206408 
L 357.113245 135.618095 
L 357.723192 130.433386 
L 358.333139 133.071636 
L 358.943086 131.902449 
L 359.553033 130.011303 
L 360.162981 129.013392 
L 360.772928 126.664184 
L 361.382875 126.884801 
L 361.992822 123.311257 
L 362.602769 125.945448 
L 363.212716 122.672525 
L 363.822664 123.18566 
L 364.432611 117.405365 
L 365.042558 113.958045 
L 365.652505 116.523479 
L 366.262452 122.463196 
L 366.872399 120.943317 
L 367.482347 127.160973 
L 368.092294 122.965227 
L 368.702241 120.895842 
L 369.312188 126.397052 
L 369.922135 129.613947 
L 370.532082 131.677184 
L 371.14203 132.51249 
L 371.751977 135.381302 
L 372.361924 140.57812 
L 372.971871 137.762663 
L 373.581818 140.655946 
L 373.581818 140.655946 
" style="fill:none;stroke:#000000;stroke-linecap:square;stroke-width:1.5;"/>
   </g>
   <g id="line2d_17">
    <path clip-path="url(#p58ee543d57)" d="M 69.218182 114.534757 
L 69.828129 112.548832 
L 70.438076 112.411998 
L 71.048023 107.848967 
L 71.65797 109.115071 
L 72.267918 109.085764 
L 72.877865 107.89767 
L 73.487812 105.190165 
L 74.097759 110.151961 
L 74.707706 110.133888 
L 75.317653 109.204756 
L 75.927601 107.475108 
L 76.537548 110.343765 
L 77.147495 104.935174 
L 77.757442 104.437443 
L 78.367389 106.283077 
L 78.977336 107.067803 
L 79.587284 105.325794 
L 80.197231 105.168209 
L 80.807178 105.498836 
L 81.417125 103.877193 
L 82.027072 103.224487 
L 82.637019 106.377977 
L 83.246967 106.793918 
L 84.466861 102.33007 
L 85.076808 103.862392 
L 85.686755 102.857939 
L 86.296702 99.457695 
L 87.516597 99.014325 
L 88.126544 97.205384 
L 88.736491 96.787282 
L 89.346438 99.371867 
L 89.956385 97.773617 
L 90.566333 93.303134 
L 91.17628 92.212903 
L 91.786227 90.581767 
L 92.396174 91.986303 
L 93.006121 92.67288 
L 93.616069 91.859217 
L 94.226016 93.986491 
L 94.835963 89.781531 
L 95.44591 88.762368 
L 96.665804 90.927521 
L 97.275752 86.2241 
L 97.885699 91.748772 
L 98.495646 90.312891 
L 99.105593 92.790564 
L 99.71554 91.453671 
L 100.325487 92.331679 
L 100.935435 99.505273 
L 101.545382 104.156176 
L 102.155329 102.585142 
L 102.765276 104.300465 
L 103.375223 101.708099 
L 105.815012 94.356342 
L 106.424959 96.425017 
L 108.254801 93.758605 
L 108.864748 92.51815 
L 109.474695 92.934421 
L 110.084642 93.582605 
L 110.694589 95.648963 
L 111.304536 96.935067 
L 111.914484 97.586673 
L 113.134378 101.833048 
L 113.744325 97.657816 
L 114.354272 100.549277 
L 114.964219 98.56511 
L 115.574167 101.55183 
L 116.184114 102.010852 
L 116.794061 98.873391 
L 117.404008 106.788818 
L 118.013955 107.069882 
L 118.623902 108.243172 
L 119.23385 105.178435 
L 119.843797 106.654281 
L 120.453744 109.325356 
L 121.063691 108.741979 
L 121.673638 103.233825 
L 122.283585 100.003418 
L 122.893533 100.248791 
L 123.50348 97.615647 
L 124.113427 95.500291 
L 124.723374 98.920443 
L 125.333321 98.585064 
L 126.553216 100.332337 
L 127.163163 101.227905 
L 128.383057 98.387329 
L 128.993004 93.604399 
L 129.602951 95.675512 
L 130.212899 96.934141 
L 130.822846 98.795985 
L 131.432793 98.605207 
L 132.04274 98.079983 
L 132.652687 98.136081 
L 133.262634 97.606452 
L 133.872582 93.90721 
L 134.482529 91.664905 
L 135.092476 88.774119 
L 136.31237 78.052037 
L 136.922317 76.489584 
L 137.532265 77.783357 
L 138.142212 79.940451 
L 139.362106 77.511409 
L 139.972053 78.711069 
L 140.582 82.183967 
L 141.191948 78.424966 
L 141.801895 79.827745 
L 142.411842 78.718061 
L 143.021789 80.468109 
L 143.631736 83.243958 
L 144.241683 84.10828 
L 144.851631 85.883557 
L 145.461578 82.949778 
L 146.071525 87.018929 
L 146.681472 87.901645 
L 147.291419 85.152319 
L 147.901366 86.19661 
L 148.511314 84.800349 
L 149.121261 79.746278 
L 149.731208 76.751522 
L 150.341155 78.51382 
L 150.951102 76.420999 
L 151.561049 80.763219 
L 152.170997 79.156052 
L 152.780944 82.02467 
L 153.390891 82.049041 
L 154.000838 82.226129 
L 154.610785 84.196327 
L 155.220732 81.844883 
L 155.83068 86.737326 
L 156.440627 83.617241 
L 157.050574 86.465786 
L 157.660521 83.619942 
L 158.880415 87.283414 
L 159.490363 87.390327 
L 160.10031 85.558163 
L 160.710257 85.109368 
L 161.320204 81.740567 
L 161.930151 82.721976 
L 162.540098 81.050109 
L 163.150046 78.105687 
L 164.36994 75.520901 
L 164.979887 73.57658 
L 165.589834 73.978034 
L 166.199781 69.966984 
L 166.809729 68.730965 
L 167.419676 68.416634 
L 168.029623 69.695544 
L 168.63957 67.641429 
L 169.249517 62.789487 
L 169.859464 68.480256 
L 170.469412 69.805765 
L 171.079359 68.841267 
L 171.689306 66.156086 
L 172.299253 65.33597 
L 172.9092 59.872927 
L 174.739042 54.808045 
L 175.348989 55.99113 
L 175.958936 49.414199 
L 176.568883 50.124407 
L 177.17883 50.255281 
L 177.788778 56.125229 
L 179.008672 49.586557 
L 179.618619 53.000393 
L 180.228566 53.969557 
L 180.838513 58.744031 
L 181.448461 60.903503 
L 182.668355 57.125849 
L 183.278302 58.328714 
L 183.888249 56.550694 
L 184.498196 60.339955 
L 185.108144 60.651776 
L 185.718091 62.546449 
L 186.937985 58.309684 
L 187.547932 57.896709 
L 188.157879 59.708574 
L 188.767827 63.50039 
L 189.377774 65.869295 
L 189.987721 66.687112 
L 190.597668 66.383344 
L 191.207615 64.679066 
L 191.817562 65.041849 
L 192.42751 63.636098 
L 193.037457 65.181435 
L 193.647404 67.187216 
L 195.477245 61.454626 
L 196.087193 64.130897 
L 196.69714 64.300888 
L 197.307087 65.890502 
L 197.917034 70.871814 
L 198.526981 65.710613 
L 199.136928 64.581212 
L 199.746876 70.59975 
L 200.356823 71.598158 
L 200.96677 68.007671 
L 201.576717 65.144539 
L 202.796611 63.07355 
L 203.406559 57.566329 
L 204.016506 56.876598 
L 204.626453 58.918987 
L 205.2364 57.754658 
L 206.456294 54.472602 
L 207.066242 49.098099 
L 207.676189 47.731018 
L 208.286136 51.439728 
L 208.896083 53.914892 
L 209.50603 52.665997 
L 210.115977 52.045049 
L 210.725925 51.230994 
L 211.335872 52.732539 
L 211.945819 51.765906 
L 212.555766 52.313345 
L 213.165713 54.266014 
L 213.77566 54.371145 
L 214.385608 58.304193 
L 214.995555 55.121546 
L 215.605502 52.646545 
L 216.215449 47.647784 
L 216.825396 54.121746 
L 217.435343 50.92492 
L 218.045291 50.585179 
L 218.655238 51.746981 
L 219.265185 56.041349 
L 219.875132 53.937963 
L 220.485079 52.512629 
L 221.095026 50.765558 
L 222.314921 54.287218 
L 222.924868 52.796056 
L 223.534815 52.397572 
L 224.144762 49.60964 
L 224.754709 53.014051 
L 225.364657 53.135816 
L 225.974604 52.099329 
L 226.584551 54.750404 
L 227.194498 54.640961 
L 227.804445 59.074424 
L 228.414392 58.338594 
L 229.02434 62.583219 
L 229.634287 59.024137 
L 230.244234 57.043885 
L 230.854181 57.647434 
L 231.464128 54.417245 
L 232.074075 46.138864 
L 232.684023 45.534124 
L 233.903917 51.137282 
L 234.513864 48.76386 
L 235.123811 47.470642 
L 235.733758 44.443636 
L 236.343706 48.883019 
L 237.5636 45.125538 
L 238.173547 48.021034 
L 238.783494 49.085372 
L 239.393441 48.150766 
L 240.003389 48.45358 
L 240.613336 52.180186 
L 241.223283 51.929239 
L 241.83323 53.181682 
L 242.443177 50.504146 
L 243.053124 52.525131 
L 243.663072 49.614936 
L 244.273019 54.53791 
L 244.882966 54.384533 
L 245.492913 52.480712 
L 246.712807 57.777772 
L 247.322755 54.715114 
L 247.932702 62.924903 
L 248.542649 65.902347 
L 249.152596 68.133963 
L 249.762543 71.455991 
L 250.37249 66.6066 
L 250.982438 69.870299 
L 251.592385 66.709641 
L 252.202332 67.357605 
L 252.812279 68.218572 
L 253.422226 65.377561 
L 254.032173 68.453621 
L 254.642121 70.241826 
L 255.252068 68.925378 
L 255.862015 70.2276 
L 257.081909 71.752648 
L 257.691856 72.388189 
L 258.301804 74.213318 
L 258.911751 70.65856 
L 259.521698 70.122127 
L 260.131645 75.183681 
L 260.741592 75.300002 
L 261.351539 74.432875 
L 261.961487 77.731201 
L 262.571434 78.60991 
L 263.181381 73.630114 
L 263.791328 71.493929 
L 264.401275 71.983568 
L 265.011222 75.972409 
L 265.62117 80.827673 
L 266.231117 84.038975 
L 266.841064 81.131252 
L 267.451011 79.944908 
L 268.060958 79.007088 
L 268.670905 78.611886 
L 269.280853 79.422643 
L 269.8908 77.805928 
L 270.500747 78.460652 
L 271.110694 75.594274 
L 271.720641 75.696338 
L 272.330588 77.504367 
L 272.940536 74.861125 
L 273.550483 75.029427 
L 274.16043 71.054704 
L 274.770377 70.328423 
L 275.380324 68.437949 
L 275.990271 68.967828 
L 276.600219 65.366986 
L 277.210166 66.517897 
L 277.820113 68.61191 
L 278.43006 68.3447 
L 279.040007 66.665546 
L 279.649954 69.807436 
L 280.259902 70.298663 
L 280.869849 68.486763 
L 281.479796 74.918838 
L 282.089743 75.211033 
L 282.69969 77.468026 
L 283.309637 76.474902 
L 283.919585 77.537537 
L 284.529532 73.781425 
L 285.139479 73.687245 
L 285.749426 75.229368 
L 286.359373 77.396265 
L 286.96932 78.792038 
L 287.579268 79.782044 
L 288.189215 80.187044 
L 288.799162 74.908693 
L 289.409109 77.347908 
L 290.019056 73.546549 
L 290.629003 74.297367 
L 291.238951 79.008451 
L 291.848898 81.473288 
L 293.068792 83.618967 
L 293.678739 76.861501 
L 294.288686 81.351069 
L 294.898634 88.24717 
L 295.508581 91.241179 
L 296.118528 91.645179 
L 296.728475 94.071658 
L 297.338422 94.616115 
L 297.948369 94.548983 
L 298.558317 95.497034 
L 299.168264 93.429752 
L 299.778211 101.162596 
L 300.388158 106.014878 
L 300.998105 105.338378 
L 301.608052 108.478858 
L 302.218 104.855908 
L 302.827947 99.248805 
L 303.437894 98.411501 
L 304.047841 102.957908 
L 304.657788 105.912661 
L 305.267735 101.018567 
L 305.877683 99.690782 
L 306.48763 100.375443 
L 307.097577 101.505453 
L 308.317471 109.00953 
L 308.927418 111.539736 
L 309.537366 107.599061 
L 310.75726 104.254577 
L 311.367207 101.844629 
L 311.977154 103.046939 
L 312.587101 102.490537 
L 313.197049 102.665524 
L 313.806996 103.63735 
L 314.416943 103.634756 
L 315.02689 101.102725 
L 316.246784 109.43737 
L 316.856732 107.991721 
L 318.686573 111.302725 
L 319.29652 112.636183 
L 320.516415 108.322596 
L 321.126362 108.792993 
L 321.736309 108.140615 
L 322.346256 105.776199 
L 322.956203 101.795253 
L 323.56615 101.503002 
L 324.176098 100.390693 
L 324.786045 101.911494 
L 325.395992 102.687646 
L 326.005939 106.073855 
L 326.615886 103.500963 
L 327.225833 103.262981 
L 328.445728 110.732008 
L 329.665622 114.230093 
L 330.275569 113.789201 
L 330.885516 111.151542 
L 331.495464 112.016198 
L 332.105411 111.623365 
L 332.715358 111.542332 
L 333.325305 109.22427 
L 333.935252 106.401543 
L 334.545199 110.48437 
L 335.155147 108.087567 
L 335.765094 108.245986 
L 336.375041 103.513179 
L 336.984988 103.162138 
L 337.594935 100.94709 
L 338.81483 99.539512 
L 339.424777 100.706567 
L 340.034724 97.123535 
L 340.644671 98.584106 
L 341.254618 95.588378 
L 341.864565 97.114414 
L 342.474513 97.614731 
L 343.08446 99.108052 
L 343.694407 100.928156 
L 344.304354 101.568365 
L 344.914301 96.697875 
L 345.524248 101.342327 
L 346.134196 100.419049 
L 346.744143 99.736106 
L 347.35409 101.788052 
L 347.964037 104.705309 
L 348.573984 99.392626 
L 349.183931 91.154647 
L 349.793879 92.234791 
L 350.403826 92.570771 
L 351.013773 92.661962 
L 351.62372 92.577221 
L 352.233667 93.855405 
L 352.843615 91.956535 
L 353.453562 89.126389 
L 354.063509 95.26728 
L 354.673456 96.029366 
L 355.283403 94.582508 
L 355.89335 91.397963 
L 356.503298 87.07467 
L 357.723192 82.035914 
L 358.943086 77.487728 
L 359.553033 79.138122 
L 360.162981 77.574616 
L 360.772928 81.649516 
L 361.382875 82.054637 
L 361.992822 79.64026 
L 362.602769 79.817765 
L 363.212716 79.342799 
L 363.822664 82.533211 
L 364.432611 83.672004 
L 365.042558 83.252492 
L 365.652505 80.506715 
L 366.262452 79.145585 
L 366.872399 79.53012 
L 367.482347 80.26561 
L 368.092294 78.329013 
L 368.702241 81.022176 
L 369.312188 78.32816 
L 369.922135 80.017188 
L 370.532082 79.892925 
L 371.14203 77.923235 
L 371.751977 74.999944 
L 372.361924 75.283509 
L 372.971871 79.312165 
L 373.581818 80.560759 
L 373.581818 80.560759 
" style="fill:none;stroke:#000000;stroke-dasharray:5.55,2.4;stroke-dashoffset:0;stroke-width:1.5;"/>
   </g>
   <g id="line2d_18">
    <defs>
     <path d="M 0 1.5 
C 0.397805 1.5 0.77937 1.341951 1.06066 1.06066 
C 1.341951 0.77937 1.5 0.397805 1.5 0 
C 1.5 -0.397805 1.341951 -0.77937 1.06066 -1.06066 
C 0.77937 -1.341951 0.397805 -1.5 0 -1.5 
C -0.397805 -1.5 -0.77937 -1.341951 -1.06066 -1.06066 
C -1.341951 -0.77937 -1.5 -0.397805 -1.5 0 
C -1.5 0.397805 -1.341951 0.77937 -1.06066 1.06066 
C -0.77937 1.341951 -0.397805 1.5 0 1.5 
z
" id="me33e597089" style="stroke:#000000;"/>
    </defs>
    <g clip-path="url(#p58ee543d57)">
     <use style="stroke:#000000;" x="69.218182" xlink:href="#me33e597089" y="118.221365"/>
     <use style="stroke:#000000;" x="69.828129" xlink:href="#me33e597089" y="114.830212"/>
     <use style="stroke:#000000;" x="70.438076" xlink:href="#me33e597089" y="109.402957"/>
     <use style="stroke:#000000;" x="71.048023" xlink:href="#me33e597089" y="104.74531"/>
     <use style="stroke:#000000;" x="71.65797" xlink:href="#me33e597089" y="106.552156"/>
     <use style="stroke:#000000;" x="72.267918" xlink:href="#me33e597089" y="103.690673"/>
     <use style="stroke:#000000;" x="72.877865" xlink:href="#me33e597089" y="106.740565"/>
     <use style="stroke:#000000;" x="73.487812" xlink:href="#me33e597089" y="108.584805"/>
     <use style="stroke:#000000;" x="74.097759" xlink:href="#me33e597089" y="110.156391"/>
     <use style="stroke:#000000;" x="74.707706" xlink:href="#me33e597089" y="111.119775"/>
     <use style="stroke:#000000;" x="75.317653" xlink:href="#me33e597089" y="108.555285"/>
     <use style="stroke:#000000;" x="75.927601" xlink:href="#me33e597089" y="111.408269"/>
     <use style="stroke:#000000;" x="76.537548" xlink:href="#me33e597089" y="109.812233"/>
     <use style="stroke:#000000;" x="77.147495" xlink:href="#me33e597089" y="109.625861"/>
     <use style="stroke:#000000;" x="77.757442" xlink:href="#me33e597089" y="108.804176"/>
     <use style="stroke:#000000;" x="78.367389" xlink:href="#me33e597089" y="110.472638"/>
     <use style="stroke:#000000;" x="78.977336" xlink:href="#me33e597089" y="113.504055"/>
     <use style="stroke:#000000;" x="79.587284" xlink:href="#me33e597089" y="113.945895"/>
     <use style="stroke:#000000;" x="80.197231" xlink:href="#me33e597089" y="108.838367"/>
     <use style="stroke:#000000;" x="80.807178" xlink:href="#me33e597089" y="111.843947"/>
     <use style="stroke:#000000;" x="81.417125" xlink:href="#me33e597089" y="112.650877"/>
     <use style="stroke:#000000;" x="82.027072" xlink:href="#me33e597089" y="116.429277"/>
     <use style="stroke:#000000;" x="82.637019" xlink:href="#me33e597089" y="115.975715"/>
     <use style="stroke:#000000;" x="83.246967" xlink:href="#me33e597089" y="118.794678"/>
     <use style="stroke:#000000;" x="83.856914" xlink:href="#me33e597089" y="116.313314"/>
     <use style="stroke:#000000;" x="84.466861" xlink:href="#me33e597089" y="114.785261"/>
     <use style="stroke:#000000;" x="85.076808" xlink:href="#me33e597089" y="118.627314"/>
     <use style="stroke:#000000;" x="85.686755" xlink:href="#me33e597089" y="119.814164"/>
     <use style="stroke:#000000;" x="86.296702" xlink:href="#me33e597089" y="115.700617"/>
     <use style="stroke:#000000;" x="86.90665" xlink:href="#me33e597089" y="119.786683"/>
     <use style="stroke:#000000;" x="87.516597" xlink:href="#me33e597089" y="120.34295"/>
     <use style="stroke:#000000;" x="88.126544" xlink:href="#me33e597089" y="118.217492"/>
     <use style="stroke:#000000;" x="88.736491" xlink:href="#me33e597089" y="117.362168"/>
     <use style="stroke:#000000;" x="89.346438" xlink:href="#me33e597089" y="115.769529"/>
     <use style="stroke:#000000;" x="89.956385" xlink:href="#me33e597089" y="114.282235"/>
     <use style="stroke:#000000;" x="90.566333" xlink:href="#me33e597089" y="115.497425"/>
     <use style="stroke:#000000;" x="91.17628" xlink:href="#me33e597089" y="116.268224"/>
     <use style="stroke:#000000;" x="91.786227" xlink:href="#me33e597089" y="121.939983"/>
     <use style="stroke:#000000;" x="92.396174" xlink:href="#me33e597089" y="123.942911"/>
     <use style="stroke:#000000;" x="93.006121" xlink:href="#me33e597089" y="121.251991"/>
     <use style="stroke:#000000;" x="93.616069" xlink:href="#me33e597089" y="123.792822"/>
     <use style="stroke:#000000;" x="94.226016" xlink:href="#me33e597089" y="122.748377"/>
     <use style="stroke:#000000;" x="94.835963" xlink:href="#me33e597089" y="127.844529"/>
     <use style="stroke:#000000;" x="95.44591" xlink:href="#me33e597089" y="130.750759"/>
     <use style="stroke:#000000;" x="96.055857" xlink:href="#me33e597089" y="130.637318"/>
     <use style="stroke:#000000;" x="96.665804" xlink:href="#me33e597089" y="135.292612"/>
     <use style="stroke:#000000;" x="97.275752" xlink:href="#me33e597089" y="135.542407"/>
     <use style="stroke:#000000;" x="97.885699" xlink:href="#me33e597089" y="135.931529"/>
     <use style="stroke:#000000;" x="98.495646" xlink:href="#me33e597089" y="133.918815"/>
     <use style="stroke:#000000;" x="99.105593" xlink:href="#me33e597089" y="129.777603"/>
     <use style="stroke:#000000;" x="99.71554" xlink:href="#me33e597089" y="128.926504"/>
     <use style="stroke:#000000;" x="100.325487" xlink:href="#me33e597089" y="127.787889"/>
     <use style="stroke:#000000;" x="100.935435" xlink:href="#me33e597089" y="124.67399"/>
     <use style="stroke:#000000;" x="101.545382" xlink:href="#me33e597089" y="123.18394"/>
     <use style="stroke:#000000;" x="102.155329" xlink:href="#me33e597089" y="122.871758"/>
     <use style="stroke:#000000;" x="102.765276" xlink:href="#me33e597089" y="125.557039"/>
     <use style="stroke:#000000;" x="103.375223" xlink:href="#me33e597089" y="124.390291"/>
     <use style="stroke:#000000;" x="103.98517" xlink:href="#me33e597089" y="123.911077"/>
     <use style="stroke:#000000;" x="104.595118" xlink:href="#me33e597089" y="122.234724"/>
     <use style="stroke:#000000;" x="105.205065" xlink:href="#me33e597089" y="120.934957"/>
     <use style="stroke:#000000;" x="105.815012" xlink:href="#me33e597089" y="123.37682"/>
     <use style="stroke:#000000;" x="106.424959" xlink:href="#me33e597089" y="125.756329"/>
     <use style="stroke:#000000;" x="107.034906" xlink:href="#me33e597089" y="122.171042"/>
     <use style="stroke:#000000;" x="107.644853" xlink:href="#me33e597089" y="126.878969"/>
     <use style="stroke:#000000;" x="108.254801" xlink:href="#me33e597089" y="128.944322"/>
     <use style="stroke:#000000;" x="108.864748" xlink:href="#me33e597089" y="132.411407"/>
     <use style="stroke:#000000;" x="109.474695" xlink:href="#me33e597089" y="134.889355"/>
     <use style="stroke:#000000;" x="110.084642" xlink:href="#me33e597089" y="136.392819"/>
     <use style="stroke:#000000;" x="110.694589" xlink:href="#me33e597089" y="140.696319"/>
     <use style="stroke:#000000;" x="111.304536" xlink:href="#me33e597089" y="137.358139"/>
     <use style="stroke:#000000;" x="111.914484" xlink:href="#me33e597089" y="140.996097"/>
     <use style="stroke:#000000;" x="112.524431" xlink:href="#me33e597089" y="143.410058"/>
     <use style="stroke:#000000;" x="113.134378" xlink:href="#me33e597089" y="141.530216"/>
     <use style="stroke:#000000;" x="113.744325" xlink:href="#me33e597089" y="137.167752"/>
     <use style="stroke:#000000;" x="114.354272" xlink:href="#me33e597089" y="134.403045"/>
     <use style="stroke:#000000;" x="114.964219" xlink:href="#me33e597089" y="137.158504"/>
     <use style="stroke:#000000;" x="115.574167" xlink:href="#me33e597089" y="134.153621"/>
     <use style="stroke:#000000;" x="116.184114" xlink:href="#me33e597089" y="135.232146"/>
     <use style="stroke:#000000;" x="116.794061" xlink:href="#me33e597089" y="133.830148"/>
     <use style="stroke:#000000;" x="117.404008" xlink:href="#me33e597089" y="134.113592"/>
     <use style="stroke:#000000;" x="118.013955" xlink:href="#me33e597089" y="136.19206"/>
     <use style="stroke:#000000;" x="118.623902" xlink:href="#me33e597089" y="137.989097"/>
     <use style="stroke:#000000;" x="119.23385" xlink:href="#me33e597089" y="133.019942"/>
     <use style="stroke:#000000;" x="119.843797" xlink:href="#me33e597089" y="132.056154"/>
     <use style="stroke:#000000;" x="120.453744" xlink:href="#me33e597089" y="134.059211"/>
     <use style="stroke:#000000;" x="121.063691" xlink:href="#me33e597089" y="129.843793"/>
     <use style="stroke:#000000;" x="121.673638" xlink:href="#me33e597089" y="123.989747"/>
     <use style="stroke:#000000;" x="122.283585" xlink:href="#me33e597089" y="122.994268"/>
     <use style="stroke:#000000;" x="122.893533" xlink:href="#me33e597089" y="121.422472"/>
     <use style="stroke:#000000;" x="123.50348" xlink:href="#me33e597089" y="120.575149"/>
     <use style="stroke:#000000;" x="124.113427" xlink:href="#me33e597089" y="124.331857"/>
     <use style="stroke:#000000;" x="124.723374" xlink:href="#me33e597089" y="117.277594"/>
     <use style="stroke:#000000;" x="125.333321" xlink:href="#me33e597089" y="116.080809"/>
     <use style="stroke:#000000;" x="125.943268" xlink:href="#me33e597089" y="113.193295"/>
     <use style="stroke:#000000;" x="126.553216" xlink:href="#me33e597089" y="115.325763"/>
     <use style="stroke:#000000;" x="127.163163" xlink:href="#me33e597089" y="115.481156"/>
     <use style="stroke:#000000;" x="127.77311" xlink:href="#me33e597089" y="116.524681"/>
     <use style="stroke:#000000;" x="128.383057" xlink:href="#me33e597089" y="114.990626"/>
     <use style="stroke:#000000;" x="128.993004" xlink:href="#me33e597089" y="109.396013"/>
     <use style="stroke:#000000;" x="129.602951" xlink:href="#me33e597089" y="103.536649"/>
     <use style="stroke:#000000;" x="130.212899" xlink:href="#me33e597089" y="103.523581"/>
     <use style="stroke:#000000;" x="130.822846" xlink:href="#me33e597089" y="101.864518"/>
     <use style="stroke:#000000;" x="131.432793" xlink:href="#me33e597089" y="101.147485"/>
     <use style="stroke:#000000;" x="132.04274" xlink:href="#me33e597089" y="99.97849"/>
     <use style="stroke:#000000;" x="132.652687" xlink:href="#me33e597089" y="104.631617"/>
     <use style="stroke:#000000;" x="133.262634" xlink:href="#me33e597089" y="104.695794"/>
     <use style="stroke:#000000;" x="133.872582" xlink:href="#me33e597089" y="108.068238"/>
     <use style="stroke:#000000;" x="134.482529" xlink:href="#me33e597089" y="104.510358"/>
     <use style="stroke:#000000;" x="135.092476" xlink:href="#me33e597089" y="108.105717"/>
     <use style="stroke:#000000;" x="135.702423" xlink:href="#me33e597089" y="107.263028"/>
     <use style="stroke:#000000;" x="136.31237" xlink:href="#me33e597089" y="105.560496"/>
     <use style="stroke:#000000;" x="136.922317" xlink:href="#me33e597089" y="106.787749"/>
     <use style="stroke:#000000;" x="137.532265" xlink:href="#me33e597089" y="105.214036"/>
     <use style="stroke:#000000;" x="138.142212" xlink:href="#me33e597089" y="107.572196"/>
     <use style="stroke:#000000;" x="138.752159" xlink:href="#me33e597089" y="108.339593"/>
     <use style="stroke:#000000;" x="139.362106" xlink:href="#me33e597089" y="109.58168"/>
     <use style="stroke:#000000;" x="139.972053" xlink:href="#me33e597089" y="111.500679"/>
     <use style="stroke:#000000;" x="140.582" xlink:href="#me33e597089" y="107.568294"/>
     <use style="stroke:#000000;" x="141.191948" xlink:href="#me33e597089" y="110.63205"/>
     <use style="stroke:#000000;" x="141.801895" xlink:href="#me33e597089" y="113.701764"/>
     <use style="stroke:#000000;" x="142.411842" xlink:href="#me33e597089" y="114.591817"/>
     <use style="stroke:#000000;" x="143.021789" xlink:href="#me33e597089" y="114.529272"/>
     <use style="stroke:#000000;" x="143.631736" xlink:href="#me33e597089" y="115.993554"/>
     <use style="stroke:#000000;" x="144.241683" xlink:href="#me33e597089" y="115.459859"/>
     <use style="stroke:#000000;" x="144.851631" xlink:href="#me33e597089" y="110.900978"/>
     <use style="stroke:#000000;" x="145.461578" xlink:href="#me33e597089" y="109.022755"/>
     <use style="stroke:#000000;" x="146.071525" xlink:href="#me33e597089" y="113.160641"/>
     <use style="stroke:#000000;" x="146.681472" xlink:href="#me33e597089" y="115.7298"/>
     <use style="stroke:#000000;" x="147.291419" xlink:href="#me33e597089" y="114.710676"/>
     <use style="stroke:#000000;" x="147.901366" xlink:href="#me33e597089" y="113.23271"/>
     <use style="stroke:#000000;" x="148.511314" xlink:href="#me33e597089" y="113.908496"/>
     <use style="stroke:#000000;" x="149.121261" xlink:href="#me33e597089" y="116.486181"/>
     <use style="stroke:#000000;" x="149.731208" xlink:href="#me33e597089" y="118.136807"/>
     <use style="stroke:#000000;" x="150.341155" xlink:href="#me33e597089" y="117.209222"/>
     <use style="stroke:#000000;" x="150.951102" xlink:href="#me33e597089" y="116.085627"/>
     <use style="stroke:#000000;" x="151.561049" xlink:href="#me33e597089" y="112.487081"/>
     <use style="stroke:#000000;" x="152.170997" xlink:href="#me33e597089" y="114.454626"/>
     <use style="stroke:#000000;" x="152.780944" xlink:href="#me33e597089" y="119.763529"/>
     <use style="stroke:#000000;" x="153.390891" xlink:href="#me33e597089" y="121.107047"/>
     <use style="stroke:#000000;" x="154.000838" xlink:href="#me33e597089" y="121.561369"/>
     <use style="stroke:#000000;" x="154.610785" xlink:href="#me33e597089" y="117.99472"/>
     <use style="stroke:#000000;" x="155.220732" xlink:href="#me33e597089" y="121.514795"/>
     <use style="stroke:#000000;" x="155.83068" xlink:href="#me33e597089" y="124.667457"/>
     <use style="stroke:#000000;" x="156.440627" xlink:href="#me33e597089" y="124.627902"/>
     <use style="stroke:#000000;" x="157.050574" xlink:href="#me33e597089" y="127.860959"/>
     <use style="stroke:#000000;" x="157.660521" xlink:href="#me33e597089" y="130.294064"/>
     <use style="stroke:#000000;" x="158.270468" xlink:href="#me33e597089" y="122.519927"/>
     <use style="stroke:#000000;" x="158.880415" xlink:href="#me33e597089" y="121.013417"/>
     <use style="stroke:#000000;" x="159.490363" xlink:href="#me33e597089" y="117.120256"/>
     <use style="stroke:#000000;" x="160.10031" xlink:href="#me33e597089" y="118.423146"/>
     <use style="stroke:#000000;" x="160.710257" xlink:href="#me33e597089" y="118.899744"/>
     <use style="stroke:#000000;" x="161.320204" xlink:href="#me33e597089" y="121.789044"/>
     <use style="stroke:#000000;" x="161.930151" xlink:href="#me33e597089" y="116.87816"/>
     <use style="stroke:#000000;" x="162.540098" xlink:href="#me33e597089" y="125.133589"/>
     <use style="stroke:#000000;" x="163.150046" xlink:href="#me33e597089" y="127.821138"/>
     <use style="stroke:#000000;" x="163.759993" xlink:href="#me33e597089" y="124.883059"/>
     <use style="stroke:#000000;" x="164.36994" xlink:href="#me33e597089" y="124.993419"/>
     <use style="stroke:#000000;" x="164.979887" xlink:href="#me33e597089" y="126.063101"/>
     <use style="stroke:#000000;" x="165.589834" xlink:href="#me33e597089" y="123.234852"/>
     <use style="stroke:#000000;" x="166.199781" xlink:href="#me33e597089" y="124.243732"/>
     <use style="stroke:#000000;" x="166.809729" xlink:href="#me33e597089" y="123.855153"/>
     <use style="stroke:#000000;" x="167.419676" xlink:href="#me33e597089" y="121.723604"/>
     <use style="stroke:#000000;" x="168.029623" xlink:href="#me33e597089" y="122.126186"/>
     <use style="stroke:#000000;" x="168.63957" xlink:href="#me33e597089" y="124.043033"/>
     <use style="stroke:#000000;" x="169.249517" xlink:href="#me33e597089" y="125.041853"/>
     <use style="stroke:#000000;" x="169.859464" xlink:href="#me33e597089" y="124.765605"/>
     <use style="stroke:#000000;" x="170.469412" xlink:href="#me33e597089" y="126.605883"/>
     <use style="stroke:#000000;" x="171.079359" xlink:href="#me33e597089" y="127.637709"/>
     <use style="stroke:#000000;" x="171.689306" xlink:href="#me33e597089" y="129.261976"/>
     <use style="stroke:#000000;" x="172.299253" xlink:href="#me33e597089" y="131.071407"/>
     <use style="stroke:#000000;" x="172.9092" xlink:href="#me33e597089" y="136.368927"/>
     <use style="stroke:#000000;" x="173.519147" xlink:href="#me33e597089" y="135.365283"/>
     <use style="stroke:#000000;" x="174.129095" xlink:href="#me33e597089" y="133.708483"/>
     <use style="stroke:#000000;" x="174.739042" xlink:href="#me33e597089" y="132.896513"/>
     <use style="stroke:#000000;" x="175.348989" xlink:href="#me33e597089" y="131.50914"/>
     <use style="stroke:#000000;" x="175.958936" xlink:href="#me33e597089" y="131.489456"/>
     <use style="stroke:#000000;" x="176.568883" xlink:href="#me33e597089" y="132.62699"/>
     <use style="stroke:#000000;" x="177.17883" xlink:href="#me33e597089" y="133.392802"/>
     <use style="stroke:#000000;" x="177.788778" xlink:href="#me33e597089" y="133.256935"/>
     <use style="stroke:#000000;" x="178.398725" xlink:href="#me33e597089" y="126.382464"/>
     <use style="stroke:#000000;" x="179.008672" xlink:href="#me33e597089" y="125.140399"/>
     <use style="stroke:#000000;" x="179.618619" xlink:href="#me33e597089" y="124.910758"/>
     <use style="stroke:#000000;" x="180.228566" xlink:href="#me33e597089" y="128.537437"/>
     <use style="stroke:#000000;" x="180.838513" xlink:href="#me33e597089" y="128.365693"/>
     <use style="stroke:#000000;" x="181.448461" xlink:href="#me33e597089" y="124.829439"/>
     <use style="stroke:#000000;" x="182.058408" xlink:href="#me33e597089" y="123.581556"/>
     <use style="stroke:#000000;" x="182.668355" xlink:href="#me33e597089" y="125.06157"/>
     <use style="stroke:#000000;" x="183.278302" xlink:href="#me33e597089" y="123.710038"/>
     <use style="stroke:#000000;" x="183.888249" xlink:href="#me33e597089" y="126.566304"/>
     <use style="stroke:#000000;" x="184.498196" xlink:href="#me33e597089" y="127.886103"/>
     <use style="stroke:#000000;" x="185.108144" xlink:href="#me33e597089" y="124.365538"/>
     <use style="stroke:#000000;" x="185.718091" xlink:href="#me33e597089" y="124.693772"/>
     <use style="stroke:#000000;" x="186.328038" xlink:href="#me33e597089" y="122.544654"/>
     <use style="stroke:#000000;" x="186.937985" xlink:href="#me33e597089" y="125.134426"/>
     <use style="stroke:#000000;" x="187.547932" xlink:href="#me33e597089" y="128.225211"/>
     <use style="stroke:#000000;" x="188.157879" xlink:href="#me33e597089" y="125.096647"/>
     <use style="stroke:#000000;" x="188.767827" xlink:href="#me33e597089" y="126.454326"/>
     <use style="stroke:#000000;" x="189.377774" xlink:href="#me33e597089" y="126.141641"/>
     <use style="stroke:#000000;" x="189.987721" xlink:href="#me33e597089" y="124.46117"/>
     <use style="stroke:#000000;" x="190.597668" xlink:href="#me33e597089" y="127.849104"/>
     <use style="stroke:#000000;" x="191.207615" xlink:href="#me33e597089" y="126.475538"/>
     <use style="stroke:#000000;" x="191.817562" xlink:href="#me33e597089" y="129.97071"/>
     <use style="stroke:#000000;" x="192.42751" xlink:href="#me33e597089" y="131.653119"/>
     <use style="stroke:#000000;" x="193.037457" xlink:href="#me33e597089" y="134.2847"/>
     <use style="stroke:#000000;" x="193.647404" xlink:href="#me33e597089" y="138.146876"/>
     <use style="stroke:#000000;" x="194.257351" xlink:href="#me33e597089" y="136.459108"/>
     <use style="stroke:#000000;" x="194.867298" xlink:href="#me33e597089" y="136.921647"/>
     <use style="stroke:#000000;" x="195.477245" xlink:href="#me33e597089" y="133.504068"/>
     <use style="stroke:#000000;" x="196.087193" xlink:href="#me33e597089" y="132.326683"/>
     <use style="stroke:#000000;" x="196.69714" xlink:href="#me33e597089" y="130.936058"/>
     <use style="stroke:#000000;" x="197.307087" xlink:href="#me33e597089" y="133.247879"/>
     <use style="stroke:#000000;" x="197.917034" xlink:href="#me33e597089" y="133.81623"/>
     <use style="stroke:#000000;" x="198.526981" xlink:href="#me33e597089" y="128.588608"/>
     <use style="stroke:#000000;" x="199.136928" xlink:href="#me33e597089" y="129.717582"/>
     <use style="stroke:#000000;" x="199.746876" xlink:href="#me33e597089" y="132.433227"/>
     <use style="stroke:#000000;" x="200.356823" xlink:href="#me33e597089" y="132.533084"/>
     <use style="stroke:#000000;" x="200.96677" xlink:href="#me33e597089" y="132.501974"/>
     <use style="stroke:#000000;" x="201.576717" xlink:href="#me33e597089" y="135.696226"/>
     <use style="stroke:#000000;" x="202.186664" xlink:href="#me33e597089" y="140.01802"/>
     <use style="stroke:#000000;" x="202.796611" xlink:href="#me33e597089" y="140.994351"/>
     <use style="stroke:#000000;" x="203.406559" xlink:href="#me33e597089" y="143.843046"/>
     <use style="stroke:#000000;" x="204.016506" xlink:href="#me33e597089" y="142.480905"/>
     <use style="stroke:#000000;" x="204.626453" xlink:href="#me33e597089" y="145.068492"/>
     <use style="stroke:#000000;" x="205.2364" xlink:href="#me33e597089" y="144.204498"/>
     <use style="stroke:#000000;" x="205.846347" xlink:href="#me33e597089" y="145.776335"/>
     <use style="stroke:#000000;" x="206.456294" xlink:href="#me33e597089" y="148.25955"/>
     <use style="stroke:#000000;" x="207.066242" xlink:href="#me33e597089" y="145.12212"/>
     <use style="stroke:#000000;" x="207.676189" xlink:href="#me33e597089" y="146.196557"/>
     <use style="stroke:#000000;" x="208.286136" xlink:href="#me33e597089" y="146.368637"/>
     <use style="stroke:#000000;" x="208.896083" xlink:href="#me33e597089" y="146.465568"/>
     <use style="stroke:#000000;" x="209.50603" xlink:href="#me33e597089" y="153.24673"/>
     <use style="stroke:#000000;" x="210.115977" xlink:href="#me33e597089" y="151.712504"/>
     <use style="stroke:#000000;" x="210.725925" xlink:href="#me33e597089" y="152.798904"/>
     <use style="stroke:#000000;" x="211.335872" xlink:href="#me33e597089" y="154.468882"/>
     <use style="stroke:#000000;" x="211.945819" xlink:href="#me33e597089" y="158.233641"/>
     <use style="stroke:#000000;" x="212.555766" xlink:href="#me33e597089" y="160.070104"/>
     <use style="stroke:#000000;" x="213.165713" xlink:href="#me33e597089" y="157.089822"/>
     <use style="stroke:#000000;" x="213.77566" xlink:href="#me33e597089" y="159.532827"/>
     <use style="stroke:#000000;" x="214.385608" xlink:href="#me33e597089" y="161.252456"/>
     <use style="stroke:#000000;" x="214.995555" xlink:href="#me33e597089" y="163.20348"/>
     <use style="stroke:#000000;" x="215.605502" xlink:href="#me33e597089" y="164.397846"/>
     <use style="stroke:#000000;" x="216.215449" xlink:href="#me33e597089" y="169.433553"/>
     <use style="stroke:#000000;" x="216.825396" xlink:href="#me33e597089" y="173.630325"/>
     <use style="stroke:#000000;" x="217.435343" xlink:href="#me33e597089" y="178.753775"/>
     <use style="stroke:#000000;" x="218.045291" xlink:href="#me33e597089" y="182.36246"/>
     <use style="stroke:#000000;" x="218.655238" xlink:href="#me33e597089" y="180.026147"/>
     <use style="stroke:#000000;" x="219.265185" xlink:href="#me33e597089" y="184.496469"/>
     <use style="stroke:#000000;" x="219.875132" xlink:href="#me33e597089" y="184.433525"/>
     <use style="stroke:#000000;" x="220.485079" xlink:href="#me33e597089" y="187.957988"/>
     <use style="stroke:#000000;" x="221.095026" xlink:href="#me33e597089" y="190.969702"/>
     <use style="stroke:#000000;" x="221.704974" xlink:href="#me33e597089" y="193.050152"/>
     <use style="stroke:#000000;" x="222.314921" xlink:href="#me33e597089" y="191.354082"/>
     <use style="stroke:#000000;" x="222.924868" xlink:href="#me33e597089" y="191.441941"/>
     <use style="stroke:#000000;" x="223.534815" xlink:href="#me33e597089" y="189.095386"/>
     <use style="stroke:#000000;" x="224.144762" xlink:href="#me33e597089" y="190.707431"/>
     <use style="stroke:#000000;" x="224.754709" xlink:href="#me33e597089" y="188.509938"/>
     <use style="stroke:#000000;" x="225.364657" xlink:href="#me33e597089" y="188.171062"/>
     <use style="stroke:#000000;" x="225.974604" xlink:href="#me33e597089" y="186.615959"/>
     <use style="stroke:#000000;" x="226.584551" xlink:href="#me33e597089" y="185.865204"/>
     <use style="stroke:#000000;" x="227.194498" xlink:href="#me33e597089" y="185.667189"/>
     <use style="stroke:#000000;" x="227.804445" xlink:href="#me33e597089" y="188.317197"/>
     <use style="stroke:#000000;" x="228.414392" xlink:href="#me33e597089" y="186.80527"/>
     <use style="stroke:#000000;" x="229.02434" xlink:href="#me33e597089" y="192.692219"/>
     <use style="stroke:#000000;" x="229.634287" xlink:href="#me33e597089" y="190.798718"/>
     <use style="stroke:#000000;" x="230.244234" xlink:href="#me33e597089" y="187.069575"/>
     <use style="stroke:#000000;" x="230.854181" xlink:href="#me33e597089" y="184.143915"/>
     <use style="stroke:#000000;" x="231.464128" xlink:href="#me33e597089" y="188.942799"/>
     <use style="stroke:#000000;" x="232.074075" xlink:href="#me33e597089" y="183.859067"/>
     <use style="stroke:#000000;" x="232.684023" xlink:href="#me33e597089" y="185.95368"/>
     <use style="stroke:#000000;" x="233.29397" xlink:href="#me33e597089" y="182.553418"/>
     <use style="stroke:#000000;" x="233.903917" xlink:href="#me33e597089" y="181.979283"/>
     <use style="stroke:#000000;" x="234.513864" xlink:href="#me33e597089" y="180.844159"/>
     <use style="stroke:#000000;" x="235.123811" xlink:href="#me33e597089" y="182.490559"/>
     <use style="stroke:#000000;" x="235.733758" xlink:href="#me33e597089" y="184.347729"/>
     <use style="stroke:#000000;" x="236.343706" xlink:href="#me33e597089" y="183.673322"/>
     <use style="stroke:#000000;" x="236.953653" xlink:href="#me33e597089" y="180.065888"/>
     <use style="stroke:#000000;" x="237.5636" xlink:href="#me33e597089" y="179.542092"/>
     <use style="stroke:#000000;" x="238.173547" xlink:href="#me33e597089" y="181.092933"/>
     <use style="stroke:#000000;" x="238.783494" xlink:href="#me33e597089" y="184.215647"/>
     <use style="stroke:#000000;" x="239.393441" xlink:href="#me33e597089" y="185.509724"/>
     <use style="stroke:#000000;" x="240.003389" xlink:href="#me33e597089" y="188.569337"/>
     <use style="stroke:#000000;" x="240.613336" xlink:href="#me33e597089" y="186.134237"/>
     <use style="stroke:#000000;" x="241.223283" xlink:href="#me33e597089" y="184.695367"/>
     <use style="stroke:#000000;" x="241.83323" xlink:href="#me33e597089" y="188.970411"/>
     <use style="stroke:#000000;" x="242.443177" xlink:href="#me33e597089" y="188.10767"/>
     <use style="stroke:#000000;" x="243.053124" xlink:href="#me33e597089" y="187.921645"/>
     <use style="stroke:#000000;" x="243.663072" xlink:href="#me33e597089" y="187.850367"/>
     <use style="stroke:#000000;" x="244.273019" xlink:href="#me33e597089" y="187.164177"/>
     <use style="stroke:#000000;" x="244.882966" xlink:href="#me33e597089" y="188.266569"/>
     <use style="stroke:#000000;" x="245.492913" xlink:href="#me33e597089" y="186.877397"/>
     <use style="stroke:#000000;" x="246.10286" xlink:href="#me33e597089" y="184.429806"/>
     <use style="stroke:#000000;" x="246.712807" xlink:href="#me33e597089" y="183.33488"/>
     <use style="stroke:#000000;" x="247.322755" xlink:href="#me33e597089" y="187.177203"/>
     <use style="stroke:#000000;" x="247.932702" xlink:href="#me33e597089" y="189.112689"/>
     <use style="stroke:#000000;" x="248.542649" xlink:href="#me33e597089" y="192.024624"/>
     <use style="stroke:#000000;" x="249.152596" xlink:href="#me33e597089" y="188.846044"/>
     <use style="stroke:#000000;" x="249.762543" xlink:href="#me33e597089" y="192.832573"/>
     <use style="stroke:#000000;" x="250.37249" xlink:href="#me33e597089" y="189.058632"/>
     <use style="stroke:#000000;" x="250.982438" xlink:href="#me33e597089" y="181.338191"/>
     <use style="stroke:#000000;" x="251.592385" xlink:href="#me33e597089" y="183.996496"/>
     <use style="stroke:#000000;" x="252.202332" xlink:href="#me33e597089" y="187.18543"/>
     <use style="stroke:#000000;" x="252.812279" xlink:href="#me33e597089" y="187.823338"/>
     <use style="stroke:#000000;" x="253.422226" xlink:href="#me33e597089" y="185.064772"/>
     <use style="stroke:#000000;" x="254.032173" xlink:href="#me33e597089" y="186.655879"/>
     <use style="stroke:#000000;" x="254.642121" xlink:href="#me33e597089" y="181.656959"/>
     <use style="stroke:#000000;" x="255.252068" xlink:href="#me33e597089" y="180.183654"/>
     <use style="stroke:#000000;" x="255.862015" xlink:href="#me33e597089" y="179.922354"/>
     <use style="stroke:#000000;" x="256.471962" xlink:href="#me33e597089" y="184.164834"/>
     <use style="stroke:#000000;" x="257.081909" xlink:href="#me33e597089" y="183.323516"/>
     <use style="stroke:#000000;" x="257.691856" xlink:href="#me33e597089" y="185.941298"/>
     <use style="stroke:#000000;" x="258.301804" xlink:href="#me33e597089" y="187.178562"/>
     <use style="stroke:#000000;" x="258.911751" xlink:href="#me33e597089" y="189.388442"/>
     <use style="stroke:#000000;" x="259.521698" xlink:href="#me33e597089" y="194.568723"/>
     <use style="stroke:#000000;" x="260.131645" xlink:href="#me33e597089" y="195.953555"/>
     <use style="stroke:#000000;" x="260.741592" xlink:href="#me33e597089" y="199.89904"/>
     <use style="stroke:#000000;" x="261.351539" xlink:href="#me33e597089" y="201.976055"/>
     <use style="stroke:#000000;" x="261.961487" xlink:href="#me33e597089" y="203.058203"/>
     <use style="stroke:#000000;" x="262.571434" xlink:href="#me33e597089" y="202.33396"/>
     <use style="stroke:#000000;" x="263.181381" xlink:href="#me33e597089" y="203.10705"/>
     <use style="stroke:#000000;" x="263.791328" xlink:href="#me33e597089" y="200.96164"/>
     <use style="stroke:#000000;" x="264.401275" xlink:href="#me33e597089" y="197.149863"/>
     <use style="stroke:#000000;" x="265.011222" xlink:href="#me33e597089" y="195.670615"/>
     <use style="stroke:#000000;" x="265.62117" xlink:href="#me33e597089" y="194.285517"/>
     <use style="stroke:#000000;" x="266.231117" xlink:href="#me33e597089" y="195.071575"/>
     <use style="stroke:#000000;" x="266.841064" xlink:href="#me33e597089" y="197.042043"/>
     <use style="stroke:#000000;" x="267.451011" xlink:href="#me33e597089" y="194.383946"/>
     <use style="stroke:#000000;" x="268.060958" xlink:href="#me33e597089" y="193.607977"/>
     <use style="stroke:#000000;" x="268.670905" xlink:href="#me33e597089" y="194.518639"/>
     <use style="stroke:#000000;" x="269.280853" xlink:href="#me33e597089" y="197.822148"/>
     <use style="stroke:#000000;" x="269.8908" xlink:href="#me33e597089" y="194.175833"/>
     <use style="stroke:#000000;" x="270.500747" xlink:href="#me33e597089" y="190.764732"/>
     <use style="stroke:#000000;" x="271.110694" xlink:href="#me33e597089" y="192.221994"/>
     <use style="stroke:#000000;" x="271.720641" xlink:href="#me33e597089" y="190.295625"/>
     <use style="stroke:#000000;" x="272.330588" xlink:href="#me33e597089" y="196.609762"/>
     <use style="stroke:#000000;" x="272.940536" xlink:href="#me33e597089" y="201.608989"/>
     <use style="stroke:#000000;" x="273.550483" xlink:href="#me33e597089" y="197.251818"/>
     <use style="stroke:#000000;" x="274.16043" xlink:href="#me33e597089" y="202.805489"/>
     <use style="stroke:#000000;" x="274.770377" xlink:href="#me33e597089" y="206.268049"/>
     <use style="stroke:#000000;" x="275.380324" xlink:href="#me33e597089" y="206.878875"/>
     <use style="stroke:#000000;" x="275.990271" xlink:href="#me33e597089" y="204.945067"/>
     <use style="stroke:#000000;" x="276.600219" xlink:href="#me33e597089" y="204.77618"/>
     <use style="stroke:#000000;" x="277.210166" xlink:href="#me33e597089" y="205.478575"/>
     <use style="stroke:#000000;" x="277.820113" xlink:href="#me33e597089" y="207.608094"/>
     <use style="stroke:#000000;" x="278.43006" xlink:href="#me33e597089" y="208.691574"/>
     <use style="stroke:#000000;" x="279.040007" xlink:href="#me33e597089" y="209.676722"/>
     <use style="stroke:#000000;" x="279.649954" xlink:href="#me33e597089" y="208.454093"/>
     <use style="stroke:#000000;" x="280.259902" xlink:href="#me33e597089" y="209.467145"/>
     <use style="stroke:#000000;" x="280.869849" xlink:href="#me33e597089" y="208.061262"/>
     <use style="stroke:#000000;" x="281.479796" xlink:href="#me33e597089" y="211.404309"/>
     <use style="stroke:#000000;" x="282.089743" xlink:href="#me33e597089" y="215.356612"/>
     <use style="stroke:#000000;" x="282.69969" xlink:href="#me33e597089" y="218.449637"/>
     <use style="stroke:#000000;" x="283.309637" xlink:href="#me33e597089" y="215.189234"/>
     <use style="stroke:#000000;" x="283.919585" xlink:href="#me33e597089" y="215.264761"/>
     <use style="stroke:#000000;" x="284.529532" xlink:href="#me33e597089" y="214.497461"/>
     <use style="stroke:#000000;" x="285.139479" xlink:href="#me33e597089" y="214.857495"/>
     <use style="stroke:#000000;" x="285.749426" xlink:href="#me33e597089" y="217.780433"/>
     <use style="stroke:#000000;" x="286.359373" xlink:href="#me33e597089" y="219.405193"/>
     <use style="stroke:#000000;" x="286.96932" xlink:href="#me33e597089" y="218.854002"/>
     <use style="stroke:#000000;" x="287.579268" xlink:href="#me33e597089" y="216.76878"/>
     <use style="stroke:#000000;" x="288.189215" xlink:href="#me33e597089" y="216.549474"/>
     <use style="stroke:#000000;" x="288.799162" xlink:href="#me33e597089" y="215.379513"/>
     <use style="stroke:#000000;" x="289.409109" xlink:href="#me33e597089" y="217.301385"/>
     <use style="stroke:#000000;" x="290.019056" xlink:href="#me33e597089" y="213.902207"/>
     <use style="stroke:#000000;" x="290.629003" xlink:href="#me33e597089" y="212.516036"/>
     <use style="stroke:#000000;" x="291.238951" xlink:href="#me33e597089" y="215.687472"/>
     <use style="stroke:#000000;" x="291.848898" xlink:href="#me33e597089" y="212.925707"/>
     <use style="stroke:#000000;" x="292.458845" xlink:href="#me33e597089" y="213.482794"/>
     <use style="stroke:#000000;" x="293.068792" xlink:href="#me33e597089" y="213.625925"/>
     <use style="stroke:#000000;" x="293.678739" xlink:href="#me33e597089" y="213.285251"/>
     <use style="stroke:#000000;" x="294.288686" xlink:href="#me33e597089" y="217.07965"/>
     <use style="stroke:#000000;" x="294.898634" xlink:href="#me33e597089" y="217.604592"/>
     <use style="stroke:#000000;" x="295.508581" xlink:href="#me33e597089" y="216.220145"/>
     <use style="stroke:#000000;" x="296.118528" xlink:href="#me33e597089" y="217.274705"/>
     <use style="stroke:#000000;" x="296.728475" xlink:href="#me33e597089" y="218.911756"/>
     <use style="stroke:#000000;" x="297.338422" xlink:href="#me33e597089" y="215.912788"/>
     <use style="stroke:#000000;" x="297.948369" xlink:href="#me33e597089" y="213.720235"/>
     <use style="stroke:#000000;" x="298.558317" xlink:href="#me33e597089" y="219.992419"/>
     <use style="stroke:#000000;" x="299.168264" xlink:href="#me33e597089" y="220.458931"/>
     <use style="stroke:#000000;" x="299.778211" xlink:href="#me33e597089" y="221.650707"/>
     <use style="stroke:#000000;" x="300.388158" xlink:href="#me33e597089" y="224.875644"/>
     <use style="stroke:#000000;" x="300.998105" xlink:href="#me33e597089" y="221.085837"/>
     <use style="stroke:#000000;" x="301.608052" xlink:href="#me33e597089" y="220.087077"/>
     <use style="stroke:#000000;" x="302.218" xlink:href="#me33e597089" y="218.22183"/>
     <use style="stroke:#000000;" x="302.827947" xlink:href="#me33e597089" y="227.247781"/>
     <use style="stroke:#000000;" x="303.437894" xlink:href="#me33e597089" y="233.003297"/>
     <use style="stroke:#000000;" x="304.047841" xlink:href="#me33e597089" y="234.16462"/>
     <use style="stroke:#000000;" x="304.657788" xlink:href="#me33e597089" y="231.416179"/>
     <use style="stroke:#000000;" x="305.267735" xlink:href="#me33e597089" y="226.331618"/>
     <use style="stroke:#000000;" x="305.877683" xlink:href="#me33e597089" y="228.532763"/>
     <use style="stroke:#000000;" x="306.48763" xlink:href="#me33e597089" y="231.555869"/>
     <use style="stroke:#000000;" x="307.097577" xlink:href="#me33e597089" y="235.529073"/>
     <use style="stroke:#000000;" x="307.707524" xlink:href="#me33e597089" y="229.488008"/>
     <use style="stroke:#000000;" x="308.317471" xlink:href="#me33e597089" y="230.254787"/>
     <use style="stroke:#000000;" x="308.927418" xlink:href="#me33e597089" y="234.798167"/>
     <use style="stroke:#000000;" x="309.537366" xlink:href="#me33e597089" y="235.434942"/>
     <use style="stroke:#000000;" x="310.147313" xlink:href="#me33e597089" y="233.466336"/>
     <use style="stroke:#000000;" x="310.75726" xlink:href="#me33e597089" y="229.729835"/>
     <use style="stroke:#000000;" x="311.367207" xlink:href="#me33e597089" y="230.776834"/>
     <use style="stroke:#000000;" x="311.977154" xlink:href="#me33e597089" y="229.38541"/>
     <use style="stroke:#000000;" x="312.587101" xlink:href="#me33e597089" y="229.09185"/>
     <use style="stroke:#000000;" x="313.197049" xlink:href="#me33e597089" y="228.44515"/>
     <use style="stroke:#000000;" x="313.806996" xlink:href="#me33e597089" y="229.194588"/>
     <use style="stroke:#000000;" x="314.416943" xlink:href="#me33e597089" y="230.07837"/>
     <use style="stroke:#000000;" x="315.02689" xlink:href="#me33e597089" y="227.747883"/>
     <use style="stroke:#000000;" x="315.636837" xlink:href="#me33e597089" y="226.698685"/>
     <use style="stroke:#000000;" x="316.246784" xlink:href="#me33e597089" y="231.359999"/>
     <use style="stroke:#000000;" x="316.856732" xlink:href="#me33e597089" y="229.583243"/>
     <use style="stroke:#000000;" x="317.466679" xlink:href="#me33e597089" y="231.271253"/>
     <use style="stroke:#000000;" x="318.076626" xlink:href="#me33e597089" y="235.103889"/>
     <use style="stroke:#000000;" x="318.686573" xlink:href="#me33e597089" y="237.916144"/>
     <use style="stroke:#000000;" x="319.29652" xlink:href="#me33e597089" y="238.111023"/>
     <use style="stroke:#000000;" x="319.906467" xlink:href="#me33e597089" y="239.230861"/>
     <use style="stroke:#000000;" x="320.516415" xlink:href="#me33e597089" y="241.995101"/>
     <use style="stroke:#000000;" x="321.126362" xlink:href="#me33e597089" y="240.150185"/>
     <use style="stroke:#000000;" x="321.736309" xlink:href="#me33e597089" y="237.521118"/>
     <use style="stroke:#000000;" x="322.346256" xlink:href="#me33e597089" y="237.319567"/>
     <use style="stroke:#000000;" x="322.956203" xlink:href="#me33e597089" y="238.646617"/>
     <use style="stroke:#000000;" x="323.56615" xlink:href="#me33e597089" y="237.677037"/>
     <use style="stroke:#000000;" x="324.176098" xlink:href="#me33e597089" y="235.654541"/>
     <use style="stroke:#000000;" x="324.786045" xlink:href="#me33e597089" y="234.880079"/>
     <use style="stroke:#000000;" x="325.395992" xlink:href="#me33e597089" y="236.415256"/>
     <use style="stroke:#000000;" x="326.005939" xlink:href="#me33e597089" y="235.142062"/>
     <use style="stroke:#000000;" x="326.615886" xlink:href="#me33e597089" y="236.338713"/>
     <use style="stroke:#000000;" x="327.225833" xlink:href="#me33e597089" y="239.995271"/>
     <use style="stroke:#000000;" x="327.835781" xlink:href="#me33e597089" y="234.969513"/>
     <use style="stroke:#000000;" x="328.445728" xlink:href="#me33e597089" y="236.070147"/>
     <use style="stroke:#000000;" x="329.055675" xlink:href="#me33e597089" y="234.005967"/>
     <use style="stroke:#000000;" x="329.665622" xlink:href="#me33e597089" y="231.4268"/>
     <use style="stroke:#000000;" x="330.275569" xlink:href="#me33e597089" y="234.141975"/>
     <use style="stroke:#000000;" x="330.885516" xlink:href="#me33e597089" y="230.369363"/>
     <use style="stroke:#000000;" x="331.495464" xlink:href="#me33e597089" y="230.454097"/>
     <use style="stroke:#000000;" x="332.105411" xlink:href="#me33e597089" y="226.876359"/>
     <use style="stroke:#000000;" x="332.715358" xlink:href="#me33e597089" y="228.428617"/>
     <use style="stroke:#000000;" x="333.325305" xlink:href="#me33e597089" y="224.104367"/>
     <use style="stroke:#000000;" x="333.935252" xlink:href="#me33e597089" y="222.124354"/>
     <use style="stroke:#000000;" x="334.545199" xlink:href="#me33e597089" y="223.544021"/>
     <use style="stroke:#000000;" x="335.155147" xlink:href="#me33e597089" y="224.357335"/>
     <use style="stroke:#000000;" x="335.765094" xlink:href="#me33e597089" y="224.597136"/>
     <use style="stroke:#000000;" x="336.375041" xlink:href="#me33e597089" y="222.119565"/>
     <use style="stroke:#000000;" x="336.984988" xlink:href="#me33e597089" y="222.632033"/>
     <use style="stroke:#000000;" x="337.594935" xlink:href="#me33e597089" y="223.979237"/>
     <use style="stroke:#000000;" x="338.204882" xlink:href="#me33e597089" y="224.563615"/>
     <use style="stroke:#000000;" x="338.81483" xlink:href="#me33e597089" y="228.10576"/>
     <use style="stroke:#000000;" x="339.424777" xlink:href="#me33e597089" y="227.497564"/>
     <use style="stroke:#000000;" x="340.034724" xlink:href="#me33e597089" y="228.265243"/>
     <use style="stroke:#000000;" x="340.644671" xlink:href="#me33e597089" y="231.801081"/>
     <use style="stroke:#000000;" x="341.254618" xlink:href="#me33e597089" y="229.209198"/>
     <use style="stroke:#000000;" x="341.864565" xlink:href="#me33e597089" y="233.041541"/>
     <use style="stroke:#000000;" x="342.474513" xlink:href="#me33e597089" y="238.793976"/>
     <use style="stroke:#000000;" x="343.08446" xlink:href="#me33e597089" y="233.269002"/>
     <use style="stroke:#000000;" x="343.694407" xlink:href="#me33e597089" y="232.66082"/>
     <use style="stroke:#000000;" x="344.304354" xlink:href="#me33e597089" y="231.828568"/>
     <use style="stroke:#000000;" x="344.914301" xlink:href="#me33e597089" y="228.636927"/>
     <use style="stroke:#000000;" x="345.524248" xlink:href="#me33e597089" y="228.416543"/>
     <use style="stroke:#000000;" x="346.134196" xlink:href="#me33e597089" y="225.895597"/>
     <use style="stroke:#000000;" x="346.744143" xlink:href="#me33e597089" y="227.621099"/>
     <use style="stroke:#000000;" x="347.35409" xlink:href="#me33e597089" y="224.75907"/>
     <use style="stroke:#000000;" x="347.964037" xlink:href="#me33e597089" y="226.801263"/>
     <use style="stroke:#000000;" x="348.573984" xlink:href="#me33e597089" y="226.847229"/>
     <use style="stroke:#000000;" x="349.183931" xlink:href="#me33e597089" y="227.05537"/>
     <use style="stroke:#000000;" x="349.793879" xlink:href="#me33e597089" y="224.157949"/>
     <use style="stroke:#000000;" x="350.403826" xlink:href="#me33e597089" y="222.360691"/>
     <use style="stroke:#000000;" x="351.013773" xlink:href="#me33e597089" y="226.757609"/>
     <use style="stroke:#000000;" x="351.62372" xlink:href="#me33e597089" y="227.906388"/>
     <use style="stroke:#000000;" x="352.233667" xlink:href="#me33e597089" y="225.353189"/>
     <use style="stroke:#000000;" x="352.843615" xlink:href="#me33e597089" y="225.585372"/>
     <use style="stroke:#000000;" x="353.453562" xlink:href="#me33e597089" y="226.72898"/>
     <use style="stroke:#000000;" x="354.063509" xlink:href="#me33e597089" y="226.162606"/>
     <use style="stroke:#000000;" x="354.673456" xlink:href="#me33e597089" y="227.827566"/>
     <use style="stroke:#000000;" x="355.283403" xlink:href="#me33e597089" y="225.478436"/>
     <use style="stroke:#000000;" x="355.89335" xlink:href="#me33e597089" y="229.484545"/>
     <use style="stroke:#000000;" x="356.503298" xlink:href="#me33e597089" y="230.82271"/>
     <use style="stroke:#000000;" x="357.113245" xlink:href="#me33e597089" y="231.312662"/>
     <use style="stroke:#000000;" x="357.723192" xlink:href="#me33e597089" y="229.892505"/>
     <use style="stroke:#000000;" x="358.333139" xlink:href="#me33e597089" y="227.562292"/>
     <use style="stroke:#000000;" x="358.943086" xlink:href="#me33e597089" y="229.072487"/>
     <use style="stroke:#000000;" x="359.553033" xlink:href="#me33e597089" y="232.170592"/>
     <use style="stroke:#000000;" x="360.162981" xlink:href="#me33e597089" y="233.479695"/>
     <use style="stroke:#000000;" x="360.772928" xlink:href="#me33e597089" y="232.641838"/>
     <use style="stroke:#000000;" x="361.382875" xlink:href="#me33e597089" y="232.690803"/>
     <use style="stroke:#000000;" x="361.992822" xlink:href="#me33e597089" y="234.083663"/>
     <use style="stroke:#000000;" x="362.602769" xlink:href="#me33e597089" y="233.776806"/>
     <use style="stroke:#000000;" x="363.212716" xlink:href="#me33e597089" y="230.131931"/>
     <use style="stroke:#000000;" x="363.822664" xlink:href="#me33e597089" y="232.191394"/>
     <use style="stroke:#000000;" x="364.432611" xlink:href="#me33e597089" y="231.338051"/>
     <use style="stroke:#000000;" x="365.042558" xlink:href="#me33e597089" y="231.242894"/>
     <use style="stroke:#000000;" x="365.652505" xlink:href="#me33e597089" y="227.615743"/>
     <use style="stroke:#000000;" x="366.262452" xlink:href="#me33e597089" y="227.553572"/>
     <use style="stroke:#000000;" x="366.872399" xlink:href="#me33e597089" y="226.161698"/>
     <use style="stroke:#000000;" x="367.482347" xlink:href="#me33e597089" y="228.866941"/>
     <use style="stroke:#000000;" x="368.092294" xlink:href="#me33e597089" y="226.570374"/>
     <use style="stroke:#000000;" x="368.702241" xlink:href="#me33e597089" y="226.924501"/>
     <use style="stroke:#000000;" x="369.312188" xlink:href="#me33e597089" y="225.078161"/>
     <use style="stroke:#000000;" x="369.922135" xlink:href="#me33e597089" y="232.204874"/>
     <use style="stroke:#000000;" x="370.532082" xlink:href="#me33e597089" y="230.888802"/>
     <use style="stroke:#000000;" x="371.14203" xlink:href="#me33e597089" y="238.009446"/>
     <use style="stroke:#000000;" x="371.751977" xlink:href="#me33e597089" y="233.453929"/>
     <use style="stroke:#000000;" x="372.361924" xlink:href="#me33e597089" y="236.243584"/>
     <use style="stroke:#000000;" x="372.971871" xlink:href="#me33e597089" y="238.152814"/>
     <use style="stroke:#000000;" x="373.581818" xlink:href="#me33e597089" y="242.116364"/>
    </g>
   </g>
   <g id="patch_3">
    <path d="M 54 252 
L 54 34.56 
" style="fill:none;stroke:#000000;stroke-linecap:square;stroke-linejoin:miter;stroke-width:0.8;"/>
   </g>
   <g id="patch_4">
    <path d="M 388.8 252 
L 388.8 34.56 
" style="fill:none;stroke:#000000;stroke-linecap:square;stroke-linejoin:miter;stroke-width:0.8;"/>
   </g>
   <g id="patch_5">
    <path d="M 54 252 
L 388.8 252 
" style="fill:none;stroke:#000000;stroke-linecap:square;stroke-linejoin:miter;stroke-width:0.8;"/>
   </g>
   <g id="patch_6">
    <path d="M 54 34.56 
L 388.8 34.56 
" style="fill:none;stroke:#000000;stroke-linecap:square;stroke-linejoin:miter;stroke-width:0.8;"/>
   </g>
   <g id="text_16">
    <!-- Hello Annotation -->
    <g transform="translate(191.207615 92.313078)scale(0.1 -0.1)">
     <defs>
      <path d="M 428 4666 
L 1063 4666 
L 1063 2753 
L 2791 2753 
L 2791 4666 
L 3425 4666 
L 3425 0 
L 2791 0 
L 2791 2222 
L 1063 2222 
L 1063 0 
L 428 0 
L 428 4666 
z
" id="DejaVuSansMono-48" transform="scale(0.015625)"/>
      <path d="M 3475 1894 
L 3475 1613 
L 984 1613 
L 984 1594 
Q 984 1022 1282 709 
Q 1581 397 2125 397 
Q 2400 397 2700 484 
Q 3000 572 3341 750 
L 3341 178 
Q 3013 44 2708 -23 
Q 2403 -91 2119 -91 
Q 1303 -91 843 398 
Q 384 888 384 1747 
Q 384 2584 834 3084 
Q 1284 3584 2034 3584 
Q 2703 3584 3089 3131 
Q 3475 2678 3475 1894 
z
M 2900 2063 
Q 2888 2569 2661 2833 
Q 2434 3097 2009 3097 
Q 1594 3097 1325 2822 
Q 1056 2547 1006 2059 
L 2900 2063 
z
" id="DejaVuSansMono-65" transform="scale(0.015625)"/>
      <path d="M 1997 1269 
Q 1997 881 2139 684 
Q 2281 488 2559 488 
L 3231 488 
L 3231 0 
L 2503 0 
Q 1988 0 1705 331 
Q 1422 663 1422 1269 
L 1422 4447 
L 500 4447 
L 500 4897 
L 1997 4897 
L 1997 1269 
z
" id="DejaVuSansMono-6c" transform="scale(0.015625)"/>
      <path d="M 1925 3097 
Q 1488 3097 1263 2756 
Q 1038 2416 1038 1747 
Q 1038 1081 1263 739 
Q 1488 397 1925 397 
Q 2366 397 2591 739 
Q 2816 1081 2816 1747 
Q 2816 2416 2591 2756 
Q 2366 3097 1925 3097 
z
M 1925 3584 
Q 2653 3584 3039 3112 
Q 3425 2641 3425 1747 
Q 3425 850 3040 379 
Q 2656 -91 1925 -91 
Q 1197 -91 812 379 
Q 428 850 428 1747 
Q 428 2641 812 3112 
Q 1197 3584 1925 3584 
z
" id="DejaVuSansMono-6f" transform="scale(0.015625)"/>
      <path id="DejaVuSansMono-20" transform="scale(0.015625)"/>
      <path d="M 1925 4109 
L 1259 1722 
L 2591 1722 
L 1925 4109 
z
M 1544 4666 
L 2309 4666 
L 3738 0 
L 3084 0 
L 2741 1216 
L 1106 1216 
L 769 0 
L 116 0 
L 1544 4666 
z
" id="DejaVuSansMono-41" transform="scale(0.015625)"/>
      <path d="M 3284 2169 
L 3284 0 
L 2706 0 
L 2706 2169 
Q 2706 2641 2540 2862 
Q 2375 3084 2022 3084 
Q 1619 3084 1401 2798 
Q 1184 2513 1184 1978 
L 1184 0 
L 609 0 
L 609 3500 
L 1184 3500 
L 1184 2975 
Q 1338 3275 1600 3429 
Q 1863 3584 2222 3584 
Q 2756 3584 3020 3232 
Q 3284 2881 3284 2169 
z
" id="DejaVuSansMono-6e" transform="scale(0.015625)"/>
      <path d="M 1919 4494 
L 1919 3500 
L 3225 3500 
L 3225 3053 
L 1919 3053 
L 1919 1153 
Q 1919 766 2066 612 
Q 2213 459 2578 459 
L 3225 459 
L 3225 0 
L 2522 0 
Q 1875 0 1609 259 
Q 1344 519 1344 1153 
L 1344 3053 
L 409 3053 
L 409 3500 
L 1344 3500 
L 1344 4494 
L 1919 4494 
z
" id="DejaVuSansMono-74" transform="scale(0.015625)"/>
      <path d="M 2194 1759 
L 2003 1759 
Q 1500 1759 1245 1582 
Q 991 1406 991 1056 
Q 991 741 1181 566 
Q 1372 391 1709 391 
Q 2184 391 2456 720 
Q 2728 1050 2731 1631 
L 2731 1759 
L 2194 1759 
z
M 3309 1997 
L 3309 0 
L 2731 0 
L 2731 519 
Q 2547 206 2267 57 
Q 1988 -91 1588 -91 
Q 1053 -91 734 211 
Q 416 513 416 1019 
Q 416 1603 808 1906 
Q 1200 2209 1959 2209 
L 2731 2209 
L 2731 2300 
Q 2728 2719 2518 2908 
Q 2309 3097 1850 3097 
Q 1556 3097 1256 3012 
Q 956 2928 672 2766 
L 672 3341 
Q 991 3463 1283 3523 
Q 1575 3584 1850 3584 
Q 2284 3584 2592 3456 
Q 2900 3328 3091 3072 
Q 3209 2916 3259 2686 
Q 3309 2456 3309 1997 
z
" id="DejaVuSansMono-61" transform="scale(0.015625)"/>
      <path d="M 800 3500 
L 2272 3500 
L 2272 447 
L 3413 447 
L 3413 0 
L 556 0 
L 556 447 
L 1697 447 
L 1697 3053 
L 800 3053 
L 800 3500 
z
M 1697 4863 
L 2272 4863 
L 2272 4134 
L 1697 4134 
L 1697 4863 
z
" id="DejaVuSansMono-69" transform="scale(0.015625)"/>
     </defs>
     <use xlink:href="#DejaVuSansMono-48"/>
     <use x="60.205078" xlink:href="#DejaVuSansMono-65"/>
     <use x="120.410156" xlink:href="#DejaVuSansMono-6c"/>
     <use x="180.615234" xlink:href="#DejaVuSansMono-6c"/>
     <use x="240.820312" xlink:href="#DejaVuSansMono-6f"/>
     <use x="301.025391" xlink:href="#DejaVuSansMono-20"/>
     <use x="361.230469" xlink:href="#DejaVuSansMono-41"/>
     <use x="421.435547" xlink:href="#DejaVuSansMono-6e"/>
     <use x="481.640625" xlink:href="#DejaVuSansMono-6e"/>
     <use x="541.845703" xlink:href="#DejaVuSansMono-6f"/>
     <use x="602.050781" xlink:href="#DejaVuSansMono-74"/>
     <use x="662.255859" xlink:href="#DejaVuSansMono-61"/>
     <use x="722.460938" xlink:href="#DejaVuSansMono-74"/>
     <use x="782.666016" xlink:href="#DejaVuSansMono-69"/>
     <use x="842.871094" xlink:href="#DejaVuSansMono-6f"/>
     <use x="903.076172" xlink:href="#DejaVuSansMono-6e"/>
    </g>
   </g>
   <g id="legend_1">
    <g id="patch_7">
     <path d="M 61 247 
L 119.45 247 
Q 121.45 247 121.45 245 
L 121.45 201.965625 
Q 121.45 199.965625 119.45 199.965625 
L 61 199.965625 
Q 59 199.965625 59 201.965625 
L 59 245 
Q 59 247 61 247 
z
" style="fill:#ffffff;opacity:0.8;stroke:#cccccc;stroke-linejoin:miter;"/>
    </g>
    <g id="line2d_19">
     <path d="M 63 208.064063 
L 83 208.064063 
" style="fill:none;stroke:#000000;stroke-linecap:square;stroke-width:1.5;"/>
    </g>
    <g id="line2d_20"/>
    <g id="text_17">
     <!-- one -->
     <g transform="translate(91 211.564063)scale(0.1 -0.1)">
      <defs>
       <path d="M 1959 3097 
Q 1497 3097 1228 2736 
Q 959 2375 959 1747 
Q 959 1119 1226 758 
Q 1494 397 1959 397 
Q 2419 397 2687 759 
Q 2956 1122 2956 1747 
Q 2956 2369 2687 2733 
Q 2419 3097 1959 3097 
z
M 1959 3584 
Q 2709 3584 3137 3096 
Q 3566 2609 3566 1747 
Q 3566 888 3137 398 
Q 2709 -91 1959 -91 
Q 1206 -91 779 398 
Q 353 888 353 1747 
Q 353 2609 779 3096 
Q 1206 3584 1959 3584 
z
" id="DejaVuSans-6f" transform="scale(0.015625)"/>
       <path d="M 3513 2113 
L 3513 0 
L 2938 0 
L 2938 2094 
Q 2938 2591 2744 2837 
Q 2550 3084 2163 3084 
Q 1697 3084 1428 2787 
Q 1159 2491 1159 1978 
L 1159 0 
L 581 0 
L 581 3500 
L 1159 3500 
L 1159 2956 
Q 1366 3272 1645 3428 
Q 1925 3584 2291 3584 
Q 2894 3584 3203 3211 
Q 3513 2838 3513 2113 
z
" id="DejaVuSans-6e" transform="scale(0.015625)"/>
       <path d="M 3597 1894 
L 3597 1613 
L 953 1613 
Q 991 1019 1311 708 
Q 1631 397 2203 397 
Q 2534 397 2845 478 
Q 3156 559 3463 722 
L 3463 178 
Q 3153 47 2828 -22 
Q 2503 -91 2169 -91 
Q 1331 -91 842 396 
Q 353 884 353 1716 
Q 353 2575 817 3079 
Q 1281 3584 2069 3584 
Q 2775 3584 3186 3129 
Q 3597 2675 3597 1894 
z
M 3022 2063 
Q 3016 2534 2758 2815 
Q 2500 3097 2075 3097 
Q 1594 3097 1305 2825 
Q 1016 2553 972 2059 
L 3022 2063 
z
" id="DejaVuSans-65" transform="scale(0.015625)"/>
      </defs>
      <use xlink:href="#DejaVuSans-6f"/>
      <use x="61.181641" xlink:href="#DejaVuSans-6e"/>
      <use x="124.560547" xlink:href="#DejaVuSans-65"/>
     </g>
    </g>
    <g id="line2d_21">
     <path d="M 63 222.742188 
L 83 222.742188 
" style="fill:none;stroke:#000000;stroke-dasharray:5.55,2.4;stroke-dashoffset:0;stroke-width:1.5;"/>
    </g>
    <g id="line2d_22"/>
    <g id="text_18">
     <!-- two -->
     <g transform="translate(91 226.242188)scale(0.1 -0.1)">
      <defs>
       <path d="M 1172 4494 
L 1172 3500 
L 2356 3500 
L 2356 3053 
L 1172 3053 
L 1172 1153 
Q 1172 725 1289 603 
Q 1406 481 1766 481 
L 2356 481 
L 2356 0 
L 1766 0 
Q 1100 0 847 248 
Q 594 497 594 1153 
L 594 3053 
L 172 3053 
L 172 3500 
L 594 3500 
L 594 4494 
L 1172 4494 
z
" id="DejaVuSans-74" transform="scale(0.015625)"/>
       <path d="M 269 3500 
L 844 3500 
L 1563 769 
L 2278 3500 
L 2956 3500 
L 3675 769 
L 4391 3500 
L 4966 3500 
L 4050 0 
L 3372 0 
L 2619 2869 
L 1863 0 
L 1184 0 
L 269 3500 
z
" id="DejaVuSans-77" transform="scale(0.015625)"/>
      </defs>
      <use xlink:href="#DejaVuSans-74"/>
      <use x="39.208984" xlink:href="#DejaVuSans-77"/>
      <use x="120.996094" xlink:href="#DejaVuSans-6f"/>
     </g>
    </g>
    <g id="line2d_23"/>
    <g id="line2d_24">
     <g>
      <use style="stroke:#000000;" x="73" xlink:href="#me33e597089" y="237.420313"/>
     </g>
    </g>
    <g id="text_19">
     <!-- three -->
     <g transform="translate(91 240.920313)scale(0.1 -0.1)">
      <defs>
       <path d="M 3513 2113 
L 3513 0 
L 2938 0 
L 2938 2094 
Q 2938 2591 2744 2837 
Q 2550 3084 2163 3084 
Q 1697 3084 1428 2787 
Q 1159 2491 1159 1978 
L 1159 0 
L 581 0 
L 581 4863 
L 1159 4863 
L 1159 2956 
Q 1366 3272 1645 3428 
Q 1925 3584 2291 3584 
Q 2894 3584 3203 3211 
Q 3513 2838 3513 2113 
z
" id="DejaVuSans-68" transform="scale(0.015625)"/>
       <path d="M 2631 2963 
Q 2534 3019 2420 3045 
Q 2306 3072 2169 3072 
Q 1681 3072 1420 2755 
Q 1159 2438 1159 1844 
L 1159 0 
L 581 0 
L 581 3500 
L 1159 3500 
L 1159 2956 
Q 1341 3275 1631 3429 
Q 1922 3584 2338 3584 
Q 2397 3584 2469 3576 
Q 2541 3569 2628 3553 
L 2631 2963 
z
" id="DejaVuSans-72" transform="scale(0.015625)"/>
      </defs>
      <use xlink:href="#DejaVuSans-74"/>
      <use x="39.208984" xlink:href="#DejaVuSans-68"/>
      <use x="102.587891" xlink:href="#DejaVuSans-72"/>
      <use x="141.451172" xlink:href="#DejaVuSans-65"/>
      <use x="202.974609" xlink:href="#DejaVuSans-65"/>
     </g>
    </g>
   </g>
  </g>
 </g>
 <defs>
  <clipPath id="p58ee543d57">
   <rect height="217.44" width="334.8" x="54" y="34.56"/>
  </clipPath>
 </defs>
</svg>
